SplineFontDB: 3.2
FontName: LMNOPEagle-Black
FullName: LMNOP Eagle Black
FamilyName: LMNOP Eagle
Weight: Black
Copyright: Copyright (c) 2023, LMNOP Type Foundry
UComments: "2023-11-25: Created with FontForge (http://fontforge.org)"
Version: 001.000
ItalicAngle: 0
UnderlinePosition: -100
UnderlineWidth: 50
Ascent: 800
Descent: 200
InvalidEm: 0
LayerCount: 2
Layer: 0 0 "Back" 1
Layer: 1 0 "Fore" 0
XUID: [1021 474 1118879153 10021]
StyleMap: 0x0000
FSType: 0
OS2Version: 0
OS2_WeightWidthSlopeOnly: 0
OS2_UseTypoMetrics: 1
CreationTime: 1700961182
ModificationTime: 1701056292
PfmFamily: 17
TTFWeight: 900
TTFWidth: 5
LineGap: 90
VLineGap: 90
OS2TypoAscent: 0
OS2TypoAOffset: 1
OS2TypoDescent: 0
OS2TypoDOffset: 1
OS2TypoLinegap: 90
OS2WinAscent: 0
OS2WinAOffset: 1
OS2WinDescent: 0
OS2WinDOffset: 1
HheadAscent: 0
HheadAOffset: 1
HheadDescent: 0
HheadDOffset: 1
OS2Vendor: 'PfEd'
Lookup: 1 0 0 "'ss01' Style Set 1 in Latin lookup 1" { "'ss01' Style Set 1 in Latin lookup 1-1" ("ss01") } ['ss01' ('DFLT' <'dflt' > 'latn' <'dflt' > ) ]
Lookup: 1 0 0 "'case' Case-Sensitive Forms in Latin lookup 0" { "'case' Case-Sensitive Forms in Latin lookup 0-1" ("case") } ['case' ('DFLT' <'dflt' > 'latn' <'dflt' > ) ]
Lookup: 258 0 0 "'kern' Horizontal Kerning in Latin lookup 0" { "'kern' Horizontal Kerning in Latin lookup 0-1" [170,15,2] } ['kern' ('DFLT' <'dflt' > 'latn' <'dflt' > ) ]
MarkAttachClasses: 1
DEI: 91125
Encoding: UnicodeBmp
UnicodeInterp: none
NameList: AGL For New Fonts
DisplaySize: -48
AntiAlias: 1
FitToEm: 0
WinInfo: 0 27 9
BeginPrivate: 0
EndPrivate
Grid
-1000 757.001953125 m 0
 2000 757.001953125 l 1024
  Named: "Ascender Height"
-1000 540.93359375 m 4
 2000 540.93359375 l 1028
  Named: "X-Height Overshoot"
-1000 531.010742188 m 4
 2000 531.010742188 l 1028
  Named: "X-Height"
-1000 -179.994140625 m 0
 2000 -179.994140625 l 1024
  Named: "Descender Height"
-1000 -9.998046875 m 0
 2000 -9.998046875 l 1024
  Named: "Bottom Overshoot"
-1000 738.9921875 m 0

StartChar: I
Encoding: 73 73 0
Width: 376
Flags: W
HStem: 0 21G<60 316> 711 20G<60 316>
VStem: 60 256<0 731>
LayerCount: 2
Fore
SplineSet
60 0 m 5
 60 731 l 5
 316 731 l 5
 316 0 l 5
 60 0 l 5
EndSplineSet
Validated: 1
EndChar

StartChar: O
Encoding: 79 79 1
Width: 842
Flags: W
HStem: -10 225.033<345.327 496.673> 513.967 225.033<346.692 495.308>
VStem: 35 251.811<278.804 449.514> 555.189 251.811<278.804 449.514>
LayerCount: 2
Fore
SplineSet
286.810546875 363.083007812 m 4
 286.810546875 272.387695312 337.9140625 215.033203125 421 215.033203125 c 4
 504.0859375 215.033203125 555.189453125 272.387695312 555.189453125 363.083007812 c 4
 555.189453125 453.185546875 504.0859375 513.966796875 421 513.966796875 c 4
 337.9140625 513.966796875 286.810546875 453.185546875 286.810546875 363.083007812 c 4
35 360 m 4
 35 579 182 739 421 739 c 4
 660 739 807 579 807 360 c 4
 807 141 660 -10 421 -10 c 4
 182 -10 35 141 35 360 c 4
EndSplineSet
Validated: 1
EndChar

StartChar: Q
Encoding: 81 81 2
Width: 842
Flags: W
HStem: -10 225.033<345.327 496.673> 513.967 225.033<346.692 495.308>
VStem: 35 251.811<278.804 449.514> 555.189 251.811<278.804 449.514>
LayerCount: 2
Fore
SplineSet
697 -105 m 29
 500 38 l 25
 717 132 l 25
 717 -105 l 25
 697 -105 l 29
EndSplineSet
Refer: 1 79 N 1 0 0 1 0 0 2
Validated: 5
EndChar

StartChar: H
Encoding: 72 72 3
Width: 806
Flags: W
HStem: 0 21G<60 316 490 746> 262 214<227 585> 711 20G<60 316 490 746>
VStem: 60 256<0 262 476 731> 227 89<262 476> 490 256<0 262 476 731> 490 95<262 476>
LayerCount: 2
Fore
SplineSet
227 476 m 5xea
 585 476 l 5
 585 262 l 5
 227 262 l 5
 227 476 l 5xea
490 0 m 5xe4
 490 731 l 5
 746 731 l 5
 746 0 l 5
 490 0 l 5xe4
60 0 m 5xf0
 60 731 l 5
 316 731 l 5
 316 0 l 5
 60 0 l 5xf0
EndSplineSet
Validated: 5
EndChar

StartChar: C
Encoding: 67 67 4
Width: 808
Flags: W
HStem: -10 225.033<345.299 499.383> 513.967 225.033<346.664 497.031>
VStem: 35 251.755<278.804 449.514>
LayerCount: 2
Fore
SplineSet
35 360 m 4
 35 579 182 739 421 739 c 4
 714.523284683 739 783.926886337 501.7030546 783.926886337 501.7030546 c 5
 549.987304688 409.009765625 l 5
 549.987304688 409.009765625 536.720703125 513.966796875 420.9453125 513.966796875 c 4
 337.858398438 513.966796875 286.754882812 453.185546875 286.754882812 363.083007812 c 4
 286.754882812 272.387695312 337.858398438 215.033203125 420.9453125 215.033203125 c 4
 532.245117188 215.033203125 557.4453125 315.674804688 557.4453125 315.674804688 c 5
 777.705078125 248.907226562 l 5
 777.705078125 248.907226562 724.253247368 -10 421 -10 c 4
 182 -10 35 141 35 360 c 4
EndSplineSet
Validated: 1
EndChar

StartChar: X
Encoding: 88 88 5
Width: 842
Flags: W
HStem: 0 21G<2 317.922 524.078 840> 711.008 20G<32 324.814 517.186 810>
LayerCount: 2
Fore
SplineSet
308 0 m 1
 2 0 l 1
 274 377 l 1
 32 731.0078125 l 1
 314 731.0078125 l 1
 500 387 l 1
 308 0 l 1
534 0 m 1
 342 387 l 1
 528 731.0078125 l 1
 810 731.0078125 l 1
 568 377 l 1
 840 0 l 1
 534 0 l 1
EndSplineSet
Validated: 5
EndChar

StartChar: G
Encoding: 71 71 6
Width: 846
Flags: W
HStem: -10 225.033<348.603 498.971> 513.967 225.033<346.664 497.706>
VStem: 35 251.755<278.804 449.514>
LayerCount: 2
Fore
SplineSet
786 328 m 1
 786 -19 l 1
 766 -19 l 1
 577 108 l 1
 577 328 l 1
 786 328 l 1
35 360 m 0
 35 579 182 739 421 739 c 0
 714.523284683 739 783.926886337 501.7030546 783.926886337 501.7030546 c 1
 556.987304688 409.009765625 l 1
 556.987304688 409.009765625 536.720703125 513.966796875 420.9453125 513.966796875 c 0
 337.858398438 513.966796875 286.754882812 453.185546875 286.754882812 363.083007812 c 0
 286.754882812 272.387695312 337.858398438 215.033203125 420.9453125 215.033203125 c 0
 542.745117188 215.033203125 558 328 558 328 c 5
 776 328 l 1
 776 328 704.252929688 -10 391 -10 c 0
 182 -10 35 141 35 360 c 0
EndSplineSet
Validated: 5
EndChar

StartChar: F
Encoding: 70 70 7
Width: 654
Flags: W
HStem: 0 21G<60 316> 213 198<164 588> 533 198<316 614>
VStem: 60 256<0 213 411 533> 164 152<213 411>
LayerCount: 2
Fore
SplineSet
164 213 m 1xe8
 164 411 l 1
 588 411 l 1
 588 213 l 1
 164 213 l 1xe8
316 533 m 1xf0
 316 0 l 1
 60 0 l 1
 60 731 l 1
 614 731 l 1
 614 533 l 1
 316 533 l 1xf0
EndSplineSet
Validated: 5
EndChar

StartChar: L
Encoding: 76 76 8
Width: 654
Flags: W
HStem: 0 198<316 614> 711 20G<60 316>
VStem: 60 256<198 731>
LayerCount: 2
Fore
SplineSet
316 198 m 5
 614 198 l 5
 614 0 l 1
 60 0 l 1
 60 731 l 1
 316 731 l 1
 316 198 l 5
EndSplineSet
Validated: 1
EndChar

StartChar: E
Encoding: 69 69 9
Width: 654
Flags: W
HStem: 0 181<316 614> 280 166<164 608> 541 190<316 614>
VStem: 60 554<0 181 280 446 541 731> 164 152<280 446>
LayerCount: 2
Fore
SplineSet
164 280 m 1xe8
 164 446 l 1
 608 446 l 1
 608 280 l 1
 164 280 l 1xe8
316 541 m 5
 316 181 l 5xe8
 614 181 l 5
 614 0 l 5
 60 0 l 5
 60 731 l 5
 614 731 l 5
 614 541 l 5xf0
 316 541 l 5
EndSplineSet
Validated: 5
EndChar

StartChar: D
Encoding: 68 68 10
Width: 812
Flags: W
HStem: 0 201<316 449.814> 521 210<316 459.326>
VStem: 60 256<201 521> 513.8 263.2<261.101 460.025>
LayerCount: 2
Fore
SplineSet
404 0 m 6
 60 0 l 5
 60 731 l 5
 404 731 l 6
 658.841310399 730.806210928 777 579 777 360 c 4
 777 141 656.588252374 0 404 0 c 6
385 201 m 6
 468.546875 201 513.799804688 256.774414062 513.799804688 363.150390625 c 4
 513.799804688 468.962890625 467.21875 521 385 521 c 6
 316 521 l 5
 316 201 l 5
 385 201 l 6
EndSplineSet
Validated: 1
EndChar

StartChar: N
Encoding: 78 78 11
Width: 803
Flags: W
HStem: 0 21G<60 296> 731 0G<60 102.77 507 743>
VStem: 60 236<0 286> 507 236<429 731>
LayerCount: 2
Fore
SplineSet
60 0 m 1
 60 751 l 1
 76 751 l 1
 507 429 l 1
 507 731 l 1
 743 731 l 1
 743 -20 l 1
 727 -20 l 1
 296 286 l 1
 296 0 l 1
 60 0 l 1
EndSplineSet
Validated: 1
EndChar

StartChar: M
Encoding: 77 77 12
Width: 844
Flags: W
HStem: 0 21G<35 256.217 567.783 809> 731 20G<64.2011 102.553 742.193 779.799>
VStem: 35 221<0 175.233> 568 241<0 175.233>
LayerCount: 2
Fore
SplineSet
35 0 m 1
 65 751 l 1
 81 751 l 1
 428 429 l 1
 763 751 l 1
 779 751 l 1
 809 0 l 1
 568 0 l 1
 565 276 l 1
 421 150 l 1
 395 150 l 1
 259 276 l 1
 256 0 l 1
 35 0 l 1
EndSplineSet
EndChar

StartChar: P
Encoding: 80 80 13
Width: 762
Flags: W
HStem: 0 21G<60 316> 200 181<285 434.458> 531 200<316 434.723>
VStem: 60 256<0 200 381 531> 285 31<200 381> 463.8 263.2<403.257 507.045>
LayerCount: 2
Fore
SplineSet
316 531 m 5xf4
 316 0 l 5
 60 0 l 5
 60 731 l 5xf4
 404 731 l 6
 628.344690259 731 727 619.970703125 727 460 c 4
 727 301.833007812 626.272843336 200 404 200 c 6
 285 200 l 5
 285 381 l 5xec
 370 381 l 6
 434 381 463.799804688 410.817382812 463.799804688 458.150390625 c 4
 463.799804688 503.6328125 432.959960938 531 370 531 c 6
 316 531 l 5xf4
EndSplineSet
Validated: 5
EndChar

StartChar: R
Encoding: 82 82 15
Width: 820
Flags: W
HStem: 0 21G<60 316 500.105 818> 230 181<285 424> 561 170<316 424.723>
VStem: 60 256<0 230 411 561> 285 31<230 411> 453.8 263.2<435.541 537.118>
LayerCount: 2
Fore
SplineSet
512 0 m 5xe4
 308 343 l 5
 544 363 l 5
 818 0 l 5
 512 0 l 5xe4
316 561 m 5xf4
 316 0 l 5
 60 0 l 5
 60 731 l 5xf4
 394 731 l 6
 618.344726562 731 717 639.970703125 717 495 c 4
 717 311.833007812 536.272460938 230 344 230 c 6
 285 230 l 5
 285 411 l 5xec
 360 411 l 6
 424 411 453.799804688 439.817382812 453.799804688 487.150390625 c 4
 453.799804688 532.6328125 422.959960938 561 360 561 c 6
 316 561 l 5xf4
EndSplineSet
Validated: 5
EndChar

StartChar: two
Encoding: 50 50 16
Width: 663
Flags: W
HStem: 0 201<495.133 623> 554 184.992<244.162 356.027>
VStem: 377 244<442.308 535.198>
LayerCount: 2
Fore
SplineSet
312 738.9921875 m 4
 539 738.9921875 621 645 621 529 c 0
 621 353 349 186 349 186 c 25
 623 201 l 17
 623 0 l 25
 2 0 l 1
 2 23 l 1
 2 23 377 339 377 481 c 0
 377 524 352 554 300 554 c 0
 201 554 200 424 200 424 c 25
 32 542 l 25
 32 542 55 738.9921875 312 738.9921875 c 4
EndSplineSet
EndChar

StartChar: S
Encoding: 83 83 17
Width: 650
Flags: W
HStem: -10 164<227.065 364.534> 588 150.992<272.203 377.997>
VStem: 33 227<422.406 575.847> 378 237<168.787 327.873>
LayerCount: 2
Fore
SplineSet
323 738.9921875 m 4
 559 738.9921875 589 579 589 579 c 5
 420 506 l 21
 420 506 402 588 319 588 c 4
 294 588 260 571 260 543 c 4
 260 495.88671875 309.943359375 480.745117188 384.859375 472.697265625 c 4
 508.223632812 459.444335938 615 399.74609375 615 256 c 4
 615 108 526 -10 290 -10 c 4
 54 -10 15 175 15 175 c 29
 192 235 l 5
 192 235 199 154 292 154 c 4
 345 154 378 170 378 206 c 4
 378 250.375976562 333.456054688 260.783203125 250.600585938 273.846679688 c 4
 152.260742188 289.3515625 33 352.811523438 33 492 c 4
 33 610 107 738.9921875 323 738.9921875 c 4
EndSplineSet
Validated: 1
EndChar

StartChar: K
Encoding: 75 75 18
Width: 818
Flags: W
HStem: 0 21G<60 316 496.46 816> 711 20.0078G<60 316 489.117 786>
VStem: 60 256<0 731>
LayerCount: 2
Fore
SplineSet
60 0 m 1
 60 731 l 1
 316 731 l 1
 316 0 l 1
 60 0 l 1
510 0 m 5
 248 387 l 5
 504 731.0078125 l 5
 786 731.0078125 l 5
 524 407 l 5
 816 0 l 5
 510 0 l 5
EndSplineSet
Validated: 5
EndChar

StartChar: J
Encoding: 74 74 19
Width: 455
Flags: W
HStem: -10 203<24.8139 234.5> 711 20G<139 395>
VStem: 139 256<207.332 731>
LayerCount: 2
Fore
SplineSet
139 258 m 6
 139 731 l 5
 395 731 l 5
 395 232 l 6
 395 51 314 -10 155 -10 c 4
 56 -10 10 19 10 19 c 5
 16 201 l 5
 16 201 39.8642578125 193 72 193 c 4
 114 193 139 210 139 258 c 6
EndSplineSet
Validated: 1
EndChar

StartChar: V
Encoding: 86 86 20
Width: 824
Flags: W
HStem: 711 20G<2 296.146 528.296 822.441>
LayerCount: 2
Fore
SplineSet
402 -20 m 5
 2 731 l 5
 288 731 l 5
 412.220703125 426 l 5
 536.44140625 731 l 5
 822.44140625 731 l 5
 422.44140625 -20 l 5
 402 -20 l 5
EndSplineSet
Validated: 1
EndChar

StartChar: U
Encoding: 85 85 21
Width: 786
Flags: W
HStem: -10 202<341.145 458.607> 711 20G<60 316 490 726>
VStem: 60 256<217.789 731> 490 236<226.663 731>
LayerCount: 2
Fore
SplineSet
60 290 m 2
 60 731 l 1
 316 731 l 1
 316 295 l 2
 316 236 335 192 395 192 c 0
 460 192 490 230 490 295 c 2
 490 731 l 1
 726 731 l 1
 726 290 l 2
 726 85 592 -10 394 -10 c 0
 167 -9.99821472168 60 110 60 290 c 2
EndSplineSet
Validated: 1
EndChar

StartChar: W
Encoding: 87 87 22
Width: 1008
Flags: W
HStem: 711 20G<2 293.91 487.724 541.159 734.973 1006.88>
LayerCount: 2
Fore
SplineSet
312 -20 m 1
 2 731 l 1
 288 731 l 1
 372.220703125 446 l 1
 496.44140625 731 l 1
 532.44140625 731 l 1
 656.662109375 446 l 1
 740.8828125 731 l 1
 1006.8828125 731 l 1
 676.8828125 -20 l 1
 656.44140625 -20 l 1
 500.44140625 281 l 5
 332.44140625 -20 l 1
 312 -20 l 1
EndSplineSet
Validated: 1
EndChar

StartChar: T
Encoding: 84 84 23
Width: 712
Flags: W
HStem: 0 21G<228 484> 528 203<40 171.6 540.4 672>
VStem: 228 256<0 538>
LayerCount: 2
Fore
SplineSet
228 0 m 5
 228 538 l 5
 40 528 l 5
 40 731 l 5
 672 731 l 5
 672 528 l 5
 484 538 l 5
 484 0 l 5
 228 0 l 5
EndSplineSet
Validated: 1
EndChar

StartChar: B
Encoding: 66 66 24
Width: 766
Flags: W
HStem: 0 150<316 458.486> 280 171<285 441.284> 561 170<316 434.659>
VStem: 285 31<280 451> 452.8 264.2<465.392 546.387> 476.8 254.2<170.093 260.62>
LayerCount: 2
Fore
SplineSet
316 731 m 1xf4
 404 731 l 2
 628.344690259 731 717 651.970703125 717 535 c 0xf8
 717 381 575.506835938 367.630859375 575.506835938 367.630859375 c 1
 575.506835938 367.630859375 731 346 731 200 c 0
 731 77.029296875 642.344726562 0 418 0 c 2
 316 0 l 1
 60 0 l 1
 60 731 l 1
 316 731 l 1xf4
316 561 m 1
 316 150 l 5
 381 150 l 6
 443.959960938 150 476.799804688 172.3671875 476.799804688 211.849609375 c 4xf4
 476.799804688 259.182617188 445 280 381 280 c 6
 285 280 l 5
 285 451 l 1
 367 451 l 2
 431 451 452.799804688 469.817382812 452.799804688 507.150390625 c 0
 452.799804688 536.6328125 429.959960938 561 367 561 c 2
 316 561 l 1
EndSplineSet
EndChar

StartChar: Y
Encoding: 89 89 25
Width: 782
Flags: W
HStem: 0 21G<263 519> 243 148<274 508> 711.008 20G<2 292.171 489.829 780>
VStem: 263 256<0 391>
LayerCount: 2
Fore
SplineSet
274 243 m 5
 2 731.0078125 l 1
 284 731.0078125 l 1
 391 469.111328125 l 5
 498 731.0078125 l 1
 780 731.0078125 l 1
 508 243 l 5
 274 243 l 5
263 0 m 1
 263 391 l 5
 519 391 l 5
 519 0 l 1
 263 0 l 1
EndSplineSet
EndChar

StartChar: A
Encoding: 65 65 26
Width: 874
Flags: W
HStem: 0 21G<-3 291.225 583.216 877.441> 91 150<228 642> 731 20G<415.549 458.893>
LayerCount: 2
Fore
SplineSet
228 241 m 1
 642 241 l 1
 642 91 l 1
 228 91 l 1
 228 241 l 1
447.44140625 751 m 5
 877.44140625 0 l 5
 591.44140625 0 l 5
 437.220703125 375 l 5
 283 0 l 5
 -3 0 l 5
 427 751 l 5
 447.44140625 751 l 5
EndSplineSet
EndChar

StartChar: Z
Encoding: 90 90 27
Width: 628
Flags: W
HStem: 0 203<423.4 604> 0 193<346 526.6> 528 203<34 207.6> 538 193<108.4 282>
LayerCount: 2
Fore
SplineSet
282 538 m 1x50
 34 528 l 1
 34 731 l 1x20
 626 731 l 1
 626 708 l 1
 346 193 l 5x50
 604 203 l 5
 604 0 l 1x80
 2 0 l 1
 2 23 l 1
 282 538 l 1x50
EndSplineSet
Validated: 1
EndChar

StartChar: one
Encoding: 49 49 28
Width: 376
Flags: W
HStem: 0 21G<60 316> 721 20G<259.111 316>
VStem: 60 256<0 651>
LayerCount: 2
Fore
SplineSet
60 0 m 1
 60 651 l 5
 316 741 l 5
 316 0 l 1
 60 0 l 1
EndSplineSet
Validated: 1
EndChar

StartChar: three
Encoding: 51 51 29
Width: 688
Flags: W
HStem: -10 154.992<247.771 381.44> 584 154.992<260.546 371.346>
VStem: 20 206.838<165.221 240.482> 390.489 237<458.238 565.071> 402.489 251<167.832 290.751>
LayerCount: 2
Fore
SplineSet
334.489257812 738.9921875 m 0xf0
 521.489257812 738.9921875 627.489257812 658 627.489257812 535 c 0xf0
 627.489257812 418.021484375 507.701171875 381.836914062 507.701171875 381.836914062 c 1
 507.701171875 381.836914062 653.489257812 351.028320312 653.489257812 208.9921875 c 0
 653.489257812 82.9921875 541.489257812 -10 334.489257812 -10 c 0
 84.2177734375 -10 20 104 20 196 c 0
 20 212.23828125 24.4892578125 225.9921875 24.4892578125 225.9921875 c 1
 229.489257812 254.9921875 l 1
 229.489257812 254.9921875 226.837890625 242 226.837890625 219.158203125 c 0
 226.837890625 181 247.489257812 144.9921875 311.489257812 144.9921875 c 0
 373.489257812 144.9921875 402.489257812 173.9921875 402.489257812 221.9921875 c 4xe8
 402.489257812 343.9921875 258.489257812 348.9921875 258.489257812 348.9921875 c 1
 258.489257812 392 l 1
 258.489257812 392 390.489257812 399 390.489257812 511 c 0
 390.489257812 554 368.489257812 584 316.489257812 584 c 0
 227.489257812 584 225.489257812 484 225.489257812 484 c 1
 34.4892578125 542 l 1
 34.4892578125 542 57.4892578125 738.9921875 334.489257812 738.9921875 c 0xf0
EndSplineSet
EndChar

StartChar: four
Encoding: 52 52 30
Width: 796
Flags: W
HStem: 0 21G<425 651> 120 161<273.817 756> 711 20G<495.208 651>
VStem: 425 226<0 429>
LayerCount: 2
Fore
SplineSet
425 0 m 5
 425 429 l 5
 273.817382812 281 l 1
 756 281 l 1
 756 120 l 1
 40 120 l 1
 40 251 l 1
 515 731 l 1
 651 731 l 1
 651 0 l 1
 425 0 l 5
EndSplineSet
Validated: 5
EndChar

StartChar: five
Encoding: 53 53 31
Width: 699
Flags: W
HStem: -10 186.992<267.755 393.227> 350 146<266.897 476.5> 553 178.008<277 589>
VStem: 419 245<201.422 314.464>
LayerCount: 2
Fore
SplineSet
68 309 m 1
 112 731.0078125 l 25
 620 731.0078125 l 29
 589 553 l 5
 277 553 l 25
 266 482 l 17
 266 482 301 496 383 496 c 0
 570 496 664 405.9921875 664 254 c 0
 664 86.9921875 552 -10 345 -10 c 0
 48 -10 25 196.9921875 25 196.9921875 c 1
 228 267.9921875 l 1
 228 267.9921875 242 176.9921875 329 176.9921875 c 0
 388 176.9921875 419 210.9921875 419 256.9921875 c 0
 419 316.928710938 375.143554688 350 280 350 c 0
 193 350 105 299 105 299 c 9
 68 309 l 1
EndSplineSet
Validated: 1
EndChar

StartChar: six
Encoding: 54 54 32
Width: 718
Flags: W
HStem: -9.99805 178.998<304.884 416.669> 321 149.934<305.192 508> 566 172.992<320.052 445.044>
VStem: 35 250<193.927 426.245> 437 246<188.272 301.477>
LayerCount: 2
Fore
SplineSet
285 245 m 0
 285 195 318 169 361 169 c 0
 404 169 437 195 437 245 c 0
 437 295 404 321 361 321 c 0
 318 321 285 295 285 245 c 0
401 738.9921875 m 0
 594 738.9921875 656 605 656 605 c 25
 472 515 l 25
 472 515 446 566 379 566 c 4
 270 566 270 429 270 429 c 25
 270 429 315 470.93359375 423 470.93359375 c 0
 593 470.93359375 683 369 683 245 c 0
 683 107 588 -9.998046875 366 -9.998046875 c 0
 139 -9.998046875 35 123 35 348 c 0
 35 619 188 738.9921875 401 738.9921875 c 0
EndSplineSet
Validated: 1
EndChar

StartChar: seven
Encoding: 55 55 33
Width: 615
Flags: W
HStem: 0 21G<96 392.412> 543 188.008<70 366>
LayerCount: 2
Fore
SplineSet
29 543 m 1
 70 731.0078125 l 25
 613 731.0078125 l 25
 613 708 l 29
 386 0 l 25
 96 0 l 25
 366 548 l 25
 29 543 l 1
EndSplineSet
Validated: 1
EndChar

StartChar: eight
Encoding: 56 56 34
Width: 722
Flags: W
HStem: -10 161.95<305.52 416.48> 307.05 141<322.3 399.7> 354 58<171.533 550.467> 574.95 164.05<309.063 412.937>
VStem: 35 243.2<175.663 282.415> 55 238.5<463.564 558.831> 428.5 238.5<463.564 558.831> 443.8 243.2<175.663 282.415>
LayerCount: 2
Fore
SplineSet
278.200195312 230.049804688 m 0xd9
 278.200195312 182.75 313.700195312 151.950195312 361 151.950195312 c 0
 408.299804688 151.950195312 443.799804688 182.75 443.799804688 230.049804688 c 0
 443.799804688 277.349609375 408.299804688 307.049804688 361 307.049804688 c 0
 313.700195312 307.049804688 278.200195312 277.349609375 278.200195312 230.049804688 c 0xd9
35 209 m 0
 35 339.215820312 131.533203125 412 361 412 c 0xb9
 590.466796875 412 687 339.215820312 687 209 c 0
 687 59.6123046875 550.466796875 -10 361 -10 c 0
 171.533203125 -10 35 59.6123046875 35 209 c 0
293.5 511.049804688 m 0xd6
 293.5 472.349609375 322.299804688 448.049804688 361 448.049804688 c 0
 399.700195312 448.049804688 428.5 472.349609375 428.5 511.049804688 c 0
 428.5 549.75 399.700195312 574.950195312 361 574.950195312 c 0
 322.299804688 574.950195312 293.5 549.75 293.5 511.049804688 c 0xd6
55 535 m 0
 55 661.387695312 171.533203125 739 361 739 c 0
 550.466796875 739 667 661.387695312 667 535 c 0
 667 401.784179688 550.466796875 354 361 354 c 4xb6
 171.533203125 354 55 401.784179688 55 535 c 0
EndSplineSet
Validated: 5
EndChar

StartChar: nine
Encoding: 57 57 35
Width: 718
Flags: W
HStem: -9.99805 169.992<268.987 393.223> 261.061 156.934<210 411.058> 569.994 168.998<300.331 407.288>
VStem: 35 244<437.287 550.453> 431 252<302.749 535.181>
LayerCount: 2
Fore
SplineSet
431 493.994140625 m 0
 431 543.994140625 398 569.994140625 355 569.994140625 c 0
 312 569.994140625 279 543.994140625 279 493.994140625 c 0
 279 443.994140625 312 417.994140625 355 417.994140625 c 0
 398 417.994140625 431 443.994140625 431 493.994140625 c 0
317 -9.998046875 m 0
 104 -9.998046875 35 146.994140625 35 146.994140625 c 25
 239 221.994140625 l 25
 239 221.994140625 259 159.994140625 330 159.994140625 c 0
 443 159.994140625 445 302.994140625 445 302.994140625 c 29
 445 302.994140625 403 261.060546875 295 261.060546875 c 0
 125 261.060546875 35 369.994140625 35 493.994140625 c 0
 35 631.994140625 130 738.9921875 352 738.9921875 c 0
 579 738.9921875 683 605.994140625 683 380.994140625 c 0
 683 109.994140625 530 -9.998046875 317 -9.998046875 c 0
EndSplineSet
EndChar

StartChar: zero
Encoding: 48 48 36
Width: 762
Flags: W
HStem: -10 205.033<327.408 434.592> 533.967 205.033<328.385 433.615>
VStem: 35 251.811<242.492 486.048> 475.189 251.811<242.492 486.048>
LayerCount: 2
Fore
SplineSet
286.810546875 363.083007812 m 0
 286.810546875 260.135695022 312.466358746 195.033203125 381 195.033203125 c 4
 449.533641254 195.033203125 475.189453125 260.135695022 475.189453125 363.083007812 c 0
 475.189453125 465.128849681 449.533641254 533.966796875 381 533.966796875 c 0
 312.466358746 533.966796875 286.810546875 465.128849681 286.810546875 363.083007812 c 0
35 360 m 0
 35 579 155.06010929 739 381 739 c 0
 606.93989071 739 727 579 727 360 c 0
 727 141 606.93989071 -10 381 -10 c 0
 155.06010929 -10 35 141 35 360 c 0
EndSplineSet
Validated: 1
EndChar

StartChar: ampersand
Encoding: 38 38 37
Width: 778
Flags: W
HStem: -10 158<264.532 389.949> 0 21G<487.834 776> 582 156.992<350 526.372>
VStem: 40 213<159.675 269.955> 193 234<471.034 573.243>
LayerCount: 2
Fore
SplineSet
642 650 m 9x68
 553 534 l 25
 553 534 517 582 476 582 c 0
 449 582 427 565 427 532 c 0
 427 497 440.758314766 469.16806078 481.1015625 412.708007812 c 2
 776 0 l 1
 501 0 l 17
 291 319 l 18
 221.915039062 423.944335938 193 480.93359375 193 563 c 0
 193 655.06640625 276 738.9921875 424 738.9921875 c 0
 572 738.9921875 642 650 642 650 c 9x68
337 470 m 25
 388 345 l 25
 388 345 253 310 253 210 c 0
 253 170 272 148 322 148 c 0
 451 148 596 417 596 417 c 25
 737 355 l 17
 737 355 573 -10 272 -10 c 0
 122 -10 40 71 40 180 c 0xb0
 40 408 337 470 337 470 c 25
EndSplineSet
Validated: 5
EndChar

StartChar: dollar
Encoding: 36 36 38
Width: 720
Flags: W
HStem: -10 144<268.567 454.249> 588 150.992<276.741 434.263>
VStem: 33 227<422.406 569.987> 324 78<-77 773> 478 207<156.451 313.944>
LayerCount: 2
Fore
SplineSet
324 -77 m 5
 324 773 l 5
 402 773 l 5
 402 -77 l 5
 324 -77 l 5
348 738.9921875 m 0
 595.616541353 738.9921875 659 579 659 579 c 1
 490 506 l 17
 490 506 464.871287129 588 349 588 c 0
 290.288135593 588 260 562.733398438 260 531 c 0
 260 487.907226562 309.943359375 480.058271792 384.859375 472.697265625 c 0
 545.746334625 459.444335938 685 395.74609375 685 232 c 0
 685 104 593.261538462 -10 350 -10 c 0
 82.5090909091 -10 25 145 25 145 c 25
 209 215 l 1
 209 215 243.2 134 352 134 c 0
 429.651162791 134 478 153.076923077 478 196 c 0
 478 246.916602687 398.492043557 258.857762319 250.600585938 273.846679688 c 0
 152.260742188 289.3515625 33 352.811523438 33 492 c 0
 33 610 117.206896552 738.9921875 348 738.9921875 c 0
EndSplineSet
EndChar

StartChar: period
Encoding: 46 46 39
Width: 370
Flags: W
HStem: 0 250<60.6897 309.31>
VStem: 60 250<0.689667 249.31>
LayerCount: 2
Fore
SplineSet
88 0 m 30
 72 0 60 12 60 28 c 30
 60 222 l 30
 60 238 72 250 88 250 c 30
 282 250 l 30
 298 250 310 238 310 222 c 30
 310 28 l 30
 310 12 298 0 282 0 c 30
 88 0 l 30
EndSplineSet
Validated: 1
EndChar

StartChar: comma
Encoding: 44 44 40
Width: 350
Flags: W
VStem: 60 250<-120 -92.6897>
LayerCount: 2
Fore
SplineSet
310 222 m 5
 88 -120 l 5
 60 -120 l 5
 60 222 l 6
 60 238 72 250 88 250 c 6
 310 250 l 5
 310 222 l 5
EndSplineSet
Validated: 1
EndChar

StartChar: colon
Encoding: 58 58 41
Width: 370
Flags: W
HStem: 0 250<60.6897 309.31> 330 250<60.6897 309.31>
VStem: 60 250<0.689667 249.31 330.69 579.31>
LayerCount: 2
Fore
SplineSet
88 330 m 26
 72 330 60 342 60 358 c 26
 60 552 l 26
 60 568 72 580 88 580 c 26
 282 580 l 26
 298 580 310 568 310 552 c 26
 310 358 l 26
 310 342 298 330 282 330 c 26
 88 330 l 26
88 0 m 26
 72 0 60 12 60 28 c 26
 60 222 l 26
 60 238 72 250 88 250 c 26
 282 250 l 26
 298 250 310 238 310 222 c 26
 310 28 l 26
 310 12 298 0 282 0 c 26
 88 0 l 26
EndSplineSet
Validated: 1
EndChar

StartChar: semicolon
Encoding: 59 59 42
Width: 370
Flags: W
HStem: 330 250<60.6897 309.31>
VStem: 60 250<222 249.31 330.69 579.31>
LayerCount: 2
Fore
SplineSet
88 330 m 30
 72 330 60 342 60 358 c 30
 60 552 l 30
 60 568 72 580 88 580 c 30
 282 580 l 30
 298 580 310 568 310 552 c 30
 310 358 l 30
 310 342 298 330 282 330 c 30
 88 330 l 30
310 222 m 1
 88 -120 l 1
 60 -120 l 1
 60 222 l 2
 60 238 72 250 88 250 c 2
 310 250 l 1
 310 222 l 1
EndSplineSet
Validated: 1
EndChar

StartChar: exclam
Encoding: 33 33 43
Width: 374
Flags: W
HStem: 0 200<62.6897 311.31> 737 20G<60 314>
VStem: 60 254<1.21289 198.787 373 757>
LayerCount: 2
Fore
SplineSet
60 757 m 1
 314 757 l 1
 314 373 l 5
 254 243 l 1
 120 243 l 1
 60 373 l 5
 60 757 l 1
90 0 m 26
 74 0 62 12 62 28 c 26
 62 172 l 26
 62 188 74 200 90 200 c 26
 284 200 l 26
 300 200 312 188 312 172 c 26
 312 28 l 26
 312 12 300 0 284 0 c 26
 90 0 l 26
EndSplineSet
EndChar

StartChar: question
Encoding: 63 63 44
Width: 627
Flags: W
HStem: 0 200<194.69 443.31> 551 216.002<233.409 317.816>
VStem: 194 250<0.689667 199.31> 326 266<467.393 613>
LayerCount: 2
Fore
SplineSet
222 0 m 2xe0
 206 0 194 12 194 28 c 2
 194 172 l 2
 194 188 206 200 222 200 c 2
 416 200 l 2
 432 200 444 188 444 172 c 2
 444 28 l 2
 444 12 432 0 416 0 c 2
 222 0 l 2xe0
304 767.001953125 m 0
 513 767.001953125 592 669 592 557 c 0
 592 400 424 352 424 249 c 2
 424 231 l 1
 212 231 l 1
 212 274 l 2
 212 394 326 441.010742188 326 510 c 0xd0
 326 533.989257812 311 551 277 551 c 0
 225 551 203 482 203 482 c 1
 15 581 l 1
 15 581 80 767.001953125 304 767.001953125 c 0
EndSplineSet
Validated: 1
EndChar

StartChar: quoteright
Encoding: 8217 8217 45
Width: 350
Flags: W
HStem: 719 20G<80 310>
VStem: 60 250<369 396.31>
LayerCount: 2
Fore
SplineSet
310 711 m 1
 88 369 l 5
 60 369 l 5
 60 711 l 2
 60 727 72 739 88 739 c 2
 310 739 l 1
 310 711 l 1
EndSplineSet
Validated: 1
EndChar

StartChar: quoteleft
Encoding: 8216 8216 46
Width: 350
Flags: W
HStem: 719 20G<40 270>
VStem: 40 250<711 738.31>
LayerCount: 2
Fore
SplineSet
40 711 m 5
 40 739 l 5
 262 739 l 6
 278 739 290 727 290 711 c 6
 290 369 l 5
 262 369 l 5
 40 711 l 5
EndSplineSet
Validated: 1
EndChar

StartChar: quotedblleft
Encoding: 8220 8220 47
Width: 650
Flags: W
HStem: 719 20G<40 270 340 570>
LayerCount: 2
Fore
SplineSet
340 711 m 5
 340 739 l 5
 562 739 l 6
 578 739 590 727 590 711 c 6
 590 369 l 5
 562 369 l 5
 340 711 l 5
40 711 m 1
 40 739 l 1
 262 739 l 2
 278 739 290 727 290 711 c 2
 290 369 l 1
 262 369 l 1
 40 711 l 1
EndSplineSet
Validated: 1
EndChar

StartChar: quotedblright
Encoding: 8221 8221 48
Width: 650
Flags: W
HStem: 719 20G<80 310 380 610>
LayerCount: 2
Fore
SplineSet
610 711 m 5
 388 369 l 5
 360 369 l 5
 360 711 l 6
 360 727 372 739 388 739 c 6
 610 739 l 5
 610 711 l 5
310 711 m 1
 88 369 l 1
 60 369 l 1
 60 711 l 2
 60 727 72 739 88 739 c 2
 310 739 l 1
 310 711 l 1
EndSplineSet
Validated: 1
EndChar

StartChar: quotesinglbase
Encoding: 8218 8218 49
Width: 350
Flags: W
VStem: 60 250<-120 -92.6897>
LayerCount: 2
Fore
SplineSet
310 222 m 5
 88 -120 l 5
 60 -120 l 5
 60 222 l 6
 60 238 72 250 88 250 c 6
 310 250 l 5
 310 222 l 5
EndSplineSet
Validated: 1
EndChar

StartChar: quotedblbase
Encoding: 8222 8222 50
Width: 650
Flags: W
LayerCount: 2
Fore
SplineSet
610 222 m 5
 388 -120 l 5
 360 -120 l 5
 360 222 l 6
 360 238 372 250 388 250 c 6
 610 250 l 5
 610 222 l 5
310 222 m 1
 88 -120 l 1
 60 -120 l 1
 60 222 l 2
 60 238 72 250 88 250 c 2
 310 250 l 1
 310 222 l 1
EndSplineSet
Validated: 1
EndChar

StartChar: hyphen
Encoding: 45 45 51
Width: 438
Flags: W
HStem: 202 214<40 398>
LayerCount: 2
Fore
SplineSet
40 416 m 5
 398 416 l 5
 398 202 l 5
 40 202 l 5
 40 416 l 5
EndSplineSet
Validated: 1
Substitution2: "'case' Case-Sensitive Forms in Latin lookup 0-1" hyphen.case
EndChar

StartChar: .notdef
Encoding: 65536 -1 52
Width: 806
Flags: W
HStem: 0 214<316 490> 517 214<316 490>
VStem: 60 256<214 517> 490 256<214 517>
LayerCount: 2
Fore
SplineSet
490 517 m 1
 316 517 l 1
 316 214 l 1
 490 214 l 1
 490 517 l 1
60 731 m 1
 746 731 l 1
 746 0 l 1
 60 0 l 1
 60 731 l 1
EndSplineSet
EndChar

StartChar: quotesingle
Encoding: 39 39 53
Width: 334
Flags: W
HStem: 719 20G<60 274>
VStem: 60 214<489 739>
LayerCount: 2
Fore
SplineSet
60 739 m 1
 274 739 l 1
 274 489 l 1
 214 369 l 1
 120 369 l 1
 60 489 l 1
 60 739 l 1
EndSplineSet
EndChar

StartChar: plus
Encoding: 43 43 54
Width: 500
Flags: W
HStem: 297 134<40 460>
VStem: 178 144<165 563>
LayerCount: 2
Fore
SplineSet
40 431 m 5
 460 431 l 5
 460 297 l 5
 40 297 l 5
 40 431 l 5
178 165 m 1
 178 563 l 1
 322 563 l 1
 322 165 l 1
 178 165 l 1
EndSplineSet
Validated: 5
EndChar

StartChar: minus
Encoding: 8722 8722 55
Width: 500
Flags: W
HStem: 297 134<40 460>
LayerCount: 2
Fore
SplineSet
40 431 m 5
 460 431 l 5
 460 297 l 5
 40 297 l 5
 40 431 l 5
EndSplineSet
Validated: 1
EndChar

StartChar: equal
Encoding: 61 61 56
Width: 500
Flags: W
HStem: 215 124<40 460> 390 124<40 460>
LayerCount: 2
Fore
SplineSet
40 339 m 5
 460 339 l 5
 460 215 l 5
 40 215 l 5
 40 339 l 5
40 514 m 5
 460 514 l 5
 460 390 l 5
 40 390 l 5
 40 514 l 5
EndSplineSet
Validated: 1
EndChar

StartChar: less
Encoding: 60 60 57
Width: 462
Flags: W
LayerCount: 2
Fore
SplineSet
2 381 m 1
 422 591 l 1
 422 437 l 1
 238.75 364 l 5
 422 291 l 1
 422 137 l 1
 2 347 l 1
 2 381 l 1
EndSplineSet
EndChar

StartChar: greater
Encoding: 62 62 58
Width: 462
Flags: W
LayerCount: 2
Fore
SplineSet
460 347 m 1
 40 137 l 1
 40 291 l 1
 223.25 364 l 5
 40 437 l 1
 40 591 l 1
 460 381 l 1
 460 347 l 1
EndSplineSet
EndChar

StartChar: slash
Encoding: 47 47 60
Width: 550
Flags: W
LayerCount: 2
Fore
SplineSet
2 -199.994140625 m 1
 332 777.001953125 l 1
 548 777.001953125 l 1
 218 -199.994140625 l 1
 2 -199.994140625 l 1
EndSplineSet
Validated: 1
EndChar

StartChar: numbersign
Encoding: 35 35 61
Width: 900
Flags: W
HStem: 0 21G<112 312.378 432 632.378> 163 144<40 820> 438 144<90 860> 711.002 20G<267.622 468 587.622 788>
LayerCount: 2
Fore
SplineSet
40 307 m 1
 820 307 l 1
 820 163 l 1
 40 163 l 1
 40 307 l 1
90 582 m 1
 860 582 l 1
 860 438 l 1
 90 438 l 1
 90 582 l 1
432 0 m 5
 592 731.001953125 l 5
 788 731.001953125 l 5
 628 0 l 5
 432 0 l 5
112 0 m 5
 272 731.001953125 l 5
 468 731.001953125 l 5
 308 0 l 5
 112 0 l 5
EndSplineSet
Validated: 5
EndChar

StartChar: e
Encoding: 101 101 62
Width: 626
Flags: W
HStem: -10 160.13<262.021 380.666> 216 114<157 384.644> 385.87 155.13<256.273 364.535>
VStem: 157 71.2295<216 330>
LayerCount: 2
Fore
SplineSet
35 260.099609375 m 0
 35 422.41410716 143.307617188 541 319.400390625 541 c 0
 512.036722361 541 588.139648438 403.732087152 588.139648438 275.705078125 c 0
 588.139648438 232.05078125 582 216 582 216 c 1
 157 216 l 1
 157 330 l 1
 384.643554688 330 l 1
 384.643554688 330 376.44140625 385.870117188 309.400390625 385.870117188 c 0
 253.141601562 385.870117188 228.229492188 339.01953125 228.229492188 275.875 c 0
 228.229492188 209.059570312 247.141601562 150.129882812 317 150.129882812 c 0
 378.09765625 150.129882812 402.958007812 195.424804688 402.958007812 195.424804688 c 1
 547 93 l 5
 547 93 495.5806902 -10 319.400390625 -10 c 0
 143.307617187 -10 35 100.230375714 35 260.099609375 c 0
EndSplineSet
EndChar

StartChar: q
Encoding: 113 113 63
Width: 685
Flags: W
HStem: -180.062 21G<413 625.4> -10.0596 185.13<196.235 371.367> 356.811 184.13<205.022 389.203> 510.94 20G<449 625.4>
VStem: 35 219.43<202.343 330.03> 413 212.4<-180.062 190.063 210.921 320.881> 449 176.4<354.818 530.94> 449 63.9004<354.818 417.021>
LayerCount: 2
Fore
SplineSet
416.770507812 264.065429688 m 4xe8
 416.770507812 320.880859375 385.858398438 356.810546875 335.599609375 356.810546875 c 4
 285.341796875 356.810546875 254.4296875 320.880859375 254.4296875 264.065429688 c 4
 254.4296875 210.920898438 285.341796875 175.0703125 335.599609375 175.0703125 c 4
 385.858398438 175.0703125 416.770507812 210.920898438 416.770507812 264.065429688 c 4xe8
625.400390625 530.940429688 m 1xda
 625.400390625 -180.061523438 l 1
 413 -180.061523438 l 1
 413 137.640625 l 1xdc
 449 407.240234375 l 1
 449 530.940429688 l 1
 625.400390625 530.940429688 l 1xda
512.900390625 297.83984375 m 0xe9
 512.900390625 140.794633883 442.219726562 -10.0595703125 271.700195312 -10.0595703125 c 0
 120.770507812 -10.0595703125 35 104.726852525 35 261.83984375 c 0
 35 427.037077979 129.770507812 540.940429688 280.700195312 540.940429688 c 0
 451.219726562 540.940429688 512.900390625 417.020696583 512.900390625 297.83984375 c 0xe9
EndSplineSet
Validated: 5
EndChar

StartChar: u
Encoding: 117 117 64
Width: 680
Flags: W
HStem: -10.002 168.13<200.235 383.066> 509.998 20G<60 279.43 408 620.4>
VStem: 60 219.43<175.805 529.998> 408 212.4<208.298 530> 408 89.9004<181.482 232.098>
LayerCount: 2
Fore
SplineSet
60 236.998046875 m 2xe8
 60 529.998046875 l 1
 279.4296875 529.998046875 l 1
 279.4296875 243.873046875 l 2
 279.4296875 187.057617188 296.341796875 158.127929688 341.599609375 158.127929688 c 0
 386.858398438 158.127929688 408 181.482421875 408 248.297851562 c 1xf0
 497.900390625 232.09765625 l 1
 497.900390625 113.408203125 446.219726562 -10.001953125 275.700195312 -10.001953125 c 0
 124.770507812 -10.001953125 60 83.216796875 60 236.998046875 c 2xe8
620.400390625 -1.001953125 m 1
 444 -1.001953125 l 1
 444 127.698242188 l 1
 408 208.297851562 l 1
 408 530 l 1
 620.400390625 530 l 1
 620.400390625 -1.001953125 l 1
EndSplineSet
EndChar

StartChar: a
Encoding: 97 97 65
Width: 685
Flags: W
HStem: -10 185.07<204.319 390.626> 0 21G<449 625.4> 356.811 184.189<196.235 370.457> 511.002 20G<413 625.4>
VStem: 35 219.43<201.116 328.759> 413 212.4<210.921 320.881 332.85 531.002> 449 63.9004<109.332 171.15>
LayerCount: 2
Fore
SplineSet
416.770507812 264.065429688 m 4xa8
 416.770507812 320.880859375 385.858398438 356.810546875 335.599609375 356.810546875 c 4
 285.341796875 356.810546875 254.4296875 320.880859375 254.4296875 264.065429688 c 4
 254.4296875 210.920898438 285.341796875 175.0703125 335.599609375 175.0703125 c 4
 385.858398438 175.0703125 416.770507812 210.920898438 416.770507812 264.065429688 c 4xa8
625.400390625 0 m 1x5c
 449 0 l 1
 449 119.700195312 l 1x5a
 413 384.299804688 l 1
 413 531.001953125 l 1
 625.400390625 531.001953125 l 1
 625.400390625 0 l 1x5c
512.900390625 224.099609375 m 0
 512.900390625 109.332014509 451.219726562 -10 280.700195312 -10 c 0
 129.770507812 -10 35 100.230375714 35 260.099609375 c 0
 35 422.41410716 120.770507812 541 271.700195312 541 c 0xaa
 442.219726562 541 512.900390625 385.736293949 512.900390625 224.099609375 c 0
EndSplineSet
EndChar

StartChar: i
Encoding: 105 105 66
Width: 336
Flags: W
HStem: 0 21G<61.7998 274.2> 511 20G<61.7998 274.2> 578 169<60.1943 275.806>
VStem: 61.7998 212.4<0 531 578.07 746.93>
LayerCount: 2
Fore
SplineSet
61.7998046875 0 m 1
 61.7998046875 531 l 1
 274.200195312 531 l 1
 274.200195312 0 l 1
 61.7998046875 0 l 1
85.2001953125 578 m 30
 70.7998046875 578 60 588.799804688 60 603.200195312 c 30
 60 721.799804688 l 30
 60 736.200195312 70.7998046875 747 85.2001953125 747 c 30
 250.799804688 747 l 30
 265.200195312 747 276 736.200195312 276 721.799804688 c 30
 276 603.200195312 l 30
 276 588.799804688 265.200195312 578 250.799804688 578 c 30
 85.2001953125 578 l 30
EndSplineSet
Validated: 1
EndChar

StartChar: j
Encoding: 106 106 67
Width: 336
Flags: W
HStem: -189.9 161.101<-45.8891 144.639> 511 20G<61.7998 274.2> 578 169<60.1943 275.806>
VStem: 61.7998 212.4<-18.7153 531 578.07 746.93>
LayerCount: 2
Fore
SplineSet
85.2001953125 578 m 26
 70.7998046875 578 60 588.799804688 60 603.200195312 c 26
 60 721.799804688 l 26
 60 736.200195312 70.7998046875 747 85.2001953125 747 c 26
 250.799804688 747 l 26
 265.200195312 747 276 736.200195312 276 721.799804688 c 26
 276 603.200195312 l 26
 276 588.799804688 265.200195312 578 250.799804688 578 c 26
 85.2001953125 578 l 26
61.7998046875 29.7001953125 m 6
 61.7998046875 531 l 1
 274.200195312 531 l 1
 274.200195312 24.2998046875 l 6
 274.200195312 -139 213.078125 -189.900390625 76.2001953125 -189.900390625 c 4
 -12.900390625 -189.900390625 -54.2998046875 -163.799804688 -54.2998046875 -163.799804688 c 5
 -48.900390625 -21.599609375 l 5
 -48.900390625 -21.599609375 -27.4228515625 -28.7998046875 1.5 -28.7998046875 c 4
 39.2998046875 -28.7998046875 61.7998046875 -14 61.7998046875 29.7001953125 c 6
EndSplineSet
Validated: 1
EndChar

StartChar: o
Encoding: 111 111 68
Width: 638
Flags: W
HStem: -10 185.13<264.089 374.711> 356.87 184.13<263.387 375.413>
VStem: 35 203.229<201.395 329.038> 400.57 203.229<201.395 329.038>
LayerCount: 2
Fore
SplineSet
238.229492188 267.875 m 4
 238.229492188 211.059570312 269.141601562 175.129882812 319.400390625 175.129882812 c 4
 369.658203125 175.129882812 400.5703125 211.059570312 400.5703125 267.875 c 4
 400.5703125 321.01953125 369.658203125 356.870117188 319.400390625 356.870117188 c 4
 269.141601562 356.870117188 238.229492188 321.01953125 238.229492188 267.875 c 4
35 260.099609375 m 0
 35 422.41410716 143.307617188 541 319.400390625 541 c 0
 495.4921875 541 603.799804688 422.41410716 603.799804688 260.099609375 c 0
 603.799804688 100.230375714 495.4921875 -10 319.400390625 -10 c 0
 143.307617188 -10 35 100.230375714 35 260.099609375 c 0
EndSplineSet
Validated: 1
EndChar

StartChar: b
Encoding: 98 98 69
Width: 685
Flags: W
HStem: -10 185.14<294.774 481.08> 0 21G<60 236.4> 356.88 183.12<314.943 489.165> 737.002 20G<60 272.4>
VStem: 60 212.4<210.99 320.95 373.128 757.002> 172.5 63.9004<109.332 180.872> 430.971 219.43<201.151 328.676>
LayerCount: 2
Fore
SplineSet
268.629882812 264.134765625 m 4xb2
 268.629882812 210.990234375 299.541992188 175.139648438 349.799804688 175.139648438 c 4
 400.05859375 175.139648438 430.970703125 210.990234375 430.970703125 264.134765625 c 4
 430.970703125 320.950195312 400.05859375 356.879882812 349.799804688 356.879882812 c 4
 299.541992188 356.879882812 268.629882812 320.950195312 268.629882812 264.134765625 c 4xb2
60 0 m 1x7a
 60 757.001953125 l 1
 272.400390625 757.001953125 l 1
 272.400390625 434.299804688 l 1x7a
 236.400390625 119.700195312 l 1
 236.400390625 0 l 1x76
 60 0 l 1x7a
172.5 224.099609375 m 0xb6
 172.5 385.226238773 243.1796875 540 413.700195312 540 c 0
 564.62890625 540 650.400390625 421.836270662 650.400390625 260.099609375 c 0
 650.400390625 100.230375714 555.62890625 -10 404.700195312 -10 c 0
 234.1796875 -10 172.5 109.332014509 172.5 224.099609375 c 0xb6
EndSplineSet
EndChar

StartChar: d
Encoding: 100 100 70
Width: 685
Flags: W
HStem: -10 185.07<204.319 390.626> 0 21G<449 625.4> 356.811 184.189<196.235 370.457> 737.002 20G<413 625.4>
VStem: 35 219.43<201.116 328.759> 413 212.4<210.921 320.881 332.85 757.002> 449 63.9004<109.332 171.15>
LayerCount: 2
Fore
SplineSet
416.770507812 264.065429688 m 4xb8
 416.770507812 320.880859375 385.858398438 356.810546875 335.599609375 356.810546875 c 4
 285.341796875 356.810546875 254.4296875 320.880859375 254.4296875 264.065429688 c 4
 254.4296875 210.920898438 285.341796875 175.0703125 335.599609375 175.0703125 c 4
 385.858398438 175.0703125 416.770507812 210.920898438 416.770507812 264.065429688 c 4xb8
625.400390625 0 m 1x7c
 449 0 l 1
 449 119.700195312 l 1x7a
 413 384.299804688 l 1
 413 757.001953125 l 1
 625.400390625 757.001953125 l 1
 625.400390625 0 l 1x7c
512.900390625 224.099609375 m 0
 512.900390625 109.332014509 451.219726562 -10 280.700195312 -10 c 0xba
 129.770507812 -10 35 100.230375714 35 260.099609375 c 0
 35 422.41410716 120.770507812 541 271.700195312 541 c 0
 442.219726562 541 512.900390625 385.736293949 512.900390625 224.099609375 c 0
EndSplineSet
EndChar

StartChar: p
Encoding: 112 112 71
Width: 685
Flags: W
HStem: -179.992 21G<60 272.4> -9.99023 185.13<314.033 489.165> 356.88 184.13<296.197 480.378> 511.01 20G<60 236.4>
VStem: 60 212.4<-179.992 189.16 210.99 320.95> 60 176.4<350.86 531.01> 172.5 63.9004<350.86 417.09> 430.971 219.43<202.413 330.099>
LayerCount: 2
Fore
SplineSet
268.629882812 264.134765625 m 4xe1
 268.629882812 210.990234375 299.541992188 175.139648438 349.799804688 175.139648438 c 4
 400.05859375 175.139648438 430.970703125 210.990234375 430.970703125 264.134765625 c 4
 430.970703125 320.950195312 400.05859375 356.879882812 349.799804688 356.879882812 c 4
 299.541992188 356.879882812 268.629882812 320.950195312 268.629882812 264.134765625 c 4xe1
60 531.009765625 m 1xd5
 236.400390625 531.009765625 l 1
 236.400390625 402.309570312 l 1xd5
 272.400390625 137.709960938 l 1
 272.400390625 -179.9921875 l 1
 60 -179.9921875 l 1xd9
 60 531.009765625 l 1xd5
172.5 297.91015625 m 0xe3
 172.5 417.090011165 234.1796875 541.009765625 404.700195312 541.009765625 c 0
 555.62890625 541.009765625 650.400390625 427.106399107 650.400390625 261.91015625 c 0
 650.400390625 104.79618694 564.62890625 -9.990234375 413.700195312 -9.990234375 c 0
 243.1796875 -9.990234375 172.5 140.863968261 172.5 297.91015625 c 0xe3
EndSplineSet
Validated: 5
EndChar

StartChar: r
Encoding: 114 114 72
Width: 551
Flags: W
HStem: -0.00195312 21G<60 272.4> 388.008 151.992<306.166 469.7> 511 20G<60 236.4>
VStem: 60 212.4<-0.00195312 361.516> 60 176.4<402.3 531>
LayerCount: 2
Fore
SplineSet
60 531 m 1xa8
 236.400390625 531 l 1
 236.400390625 402.299804688 l 1xa8
 272.400390625 341.700195312 l 1
 272.400390625 -0.001953125 l 1
 60 -0.001953125 l 1xb0
 60 531 l 1xa8
330.700195312 388.0078125 m 0xd0
 294.033203125 388.0078125 272.400390625 361.515625 272.400390625 301.700195312 c 1
 202.5 257.900390625 l 1
 202.5 375.943359375 232.613867156 540 394.700195312 540 c 0
 544.700195312 540 552 411.0078125 552 411.0078125 c 1
 385.904296875 297.307617188 l 1
 385.904296875 359.485351562 364.876953125 388.0078125 330.700195312 388.0078125 c 0xd0
EndSplineSet
EndChar

StartChar: thorn
Encoding: 254 254 73
Width: 685
Flags: W
HStem: -179.992 21G<60 272.4> -9.99023 185.13<314.033 489.165> 356.88 184.13<296.197 480.378> 737.01 20G<60 272.4>
VStem: 60 212.4<-179.992 169.044 210.99 320.95 371.904 757.01> 172.5 99.9004<140.864 169.044 175.927 369.02 371.904 417.09> 430.971 219.43<202.413 330.099>
LayerCount: 2
Fore
SplineSet
268.629882812 264.134765625 m 0xf2
 268.629882812 210.990234375 299.541992188 175.139648438 349.799804688 175.139648438 c 0
 400.05859375 175.139648438 430.970703125 210.990234375 430.970703125 264.134765625 c 0
 430.970703125 320.950195312 400.05859375 356.879882812 349.799804688 356.879882812 c 0
 299.541992188 356.879882812 268.629882812 320.950195312 268.629882812 264.134765625 c 0xf2
60 757.009765625 m 1xfa
 272.400390625 757.009765625 l 1
 272.400390625 402.309570312 l 1
 242.400390625 272 l 1
 272.400390625 137.709960938 l 1
 272.400390625 -179.9921875 l 1
 60 -179.9921875 l 1
 60 757.009765625 l 1xfa
172.5 297.91015625 m 0xf6
 172.5 417.090011165 234.1796875 541.009765625 404.700195312 541.009765625 c 0
 555.62890625 541.009765625 650.400390625 427.106399107 650.400390625 261.91015625 c 0
 650.400390625 104.79618694 564.62890625 -9.990234375 413.700195312 -9.990234375 c 0
 243.1796875 -9.990234375 172.5 140.863968261 172.5 297.91015625 c 0xf6
EndSplineSet
Validated: 5
EndChar

StartChar: dotlessi
Encoding: 305 305 74
Width: 336
Flags: W
HStem: 0 21G<61.7998 274.2> 511 20G<61.7998 274.2>
VStem: 61.7998 212.4<0 531>
LayerCount: 2
Fore
SplineSet
61.7998046875 0 m 1
 61.7998046875 531 l 1
 274.200195312 531 l 1
 274.200195312 0 l 1
 61.7998046875 0 l 1
EndSplineSet
Validated: 1
EndChar

StartChar: uni0237
Encoding: 567 567 75
Width: 336
Flags: W
HStem: -189.9 161.101<-45.8891 144.639> 511 20G<61.7998 274.2>
VStem: 61.7998 212.4<-18.7153 531>
LayerCount: 2
Fore
SplineSet
61.7998046875 29.7001953125 m 6
 61.7998046875 531 l 1
 274.200195312 531 l 1
 274.200195312 24.2998046875 l 6
 274.200195312 -139 213.078125 -189.900390625 76.2001953125 -189.900390625 c 4
 -12.900390625 -189.900390625 -54.2998046875 -163.799804688 -54.2998046875 -163.799804688 c 5
 -48.900390625 -21.599609375 l 5
 -48.900390625 -21.599609375 -27.4228515625 -28.7998046875 1.5 -28.7998046875 c 4
 39.2998046875 -28.7998046875 61.7998046875 -14 61.7998046875 29.7001953125 c 6
EndSplineSet
Validated: 1
EndChar

StartChar: h
Encoding: 104 104 76
Width: 680
Flags: W
HStem: 0 21G<60 272.4 400.971 620.4> 371.87 169.13<297.335 480.165> 737 20G<60 272.4>
VStem: 60 212.4<-0.00195312 757> 182.5 89.9004<297.9 417.08> 400.971 219.43<0 354.44>
LayerCount: 2
Fore
SplineSet
620.400390625 293 m 2xec
 620.400390625 0 l 1
 400.970703125 0 l 1
 400.970703125 286.125 l 2
 400.970703125 342.940429688 384.05859375 371.870117188 338.80078125 371.870117188 c 0
 293.541992188 371.870117188 272.400390625 348.515625 272.400390625 281.700195312 c 1xf4
 182.5 297.900390625 l 1
 182.5 417.08024554 234.180664062 541 404.700195312 541 c 0
 555.629882812 541 620.400390625 447.403689601 620.400390625 293 c 2xec
60 757 m 1
 272.400390625 757 l 1
 272.400390625 -0.001953125 l 1
 60 -0.001953125 l 1
 60 757 l 1
EndSplineSet
EndChar

StartChar: percent
Encoding: 37 37 77
Width: 909
Flags: W
HStem: -9.99805 134.937<637.351 714.649> 0 21G<175 293.558> 229.565 134.937<637.649 714.351> 364.492 134.937<194.351 271.649> 604.056 134.937<194.649 271.351> 711.008 20G<621.442 740>
VStem: 40 146.034<508.154 595.379> 279.967 146.033<508.154 595.379> 483 146.034<133.664 220.889> 722.967 146.033<133.664 220.889>
LayerCount: 2
Fore
SplineSet
629.034179688 176.755859375 m 0xa3c0
 629.034179688 145.012695312 646.919921875 124.938476562 676 124.938476562 c 0
 705.080078125 124.938476562 722.966796875 145.012695312 722.966796875 176.755859375 c 0
 722.966796875 208.291992188 705.080078125 229.565429688 676 229.565429688 c 0
 646.919921875 229.565429688 629.034179688 208.291992188 629.034179688 176.755859375 c 0xa3c0
483 175.001953125 m 0
 483 284.501953125 556.5 364.501953125 676 364.501953125 c 0
 795.5 364.501953125 869 284.501953125 869 175.001953125 c 0
 869 65.501953125 795.5 -9.998046875 676 -9.998046875 c 0
 556.5 -9.998046875 483 65.501953125 483 175.001953125 c 0
186.034179688 551.24609375 m 0
 186.034179688 519.502929688 203.919921875 499.428710938 233 499.428710938 c 0
 262.080078125 499.428710938 279.966796875 519.502929688 279.966796875 551.24609375 c 0
 279.966796875 582.782226562 262.080078125 604.055664062 233 604.055664062 c 0x1bc0
 203.919921875 604.055664062 186.034179688 582.782226562 186.034179688 551.24609375 c 0
40 549.4921875 m 0
 40 658.9921875 113.5 738.9921875 233 738.9921875 c 0
 352.5 738.9921875 426 658.9921875 426 549.4921875 c 0
 426 439.9921875 352.5 364.4921875 233 364.4921875 c 0
 113.5 364.4921875 40 439.9921875 40 549.4921875 c 0
175 0 m 1x47c0
 634 731.0078125 l 1
 740 731.0078125 l 1
 281 0 l 1
 175 0 l 1x47c0
EndSplineSet
Validated: 1
EndChar

StartChar: c
Encoding: 99 99 78
Width: 593
Flags: W
HStem: -10 187.13<264.106 373.433> 358.87 181.13<263.387 373.11>
VStem: 35 203.229<202.395 333.37>
LayerCount: 2
Fore
SplineSet
35 260.099609375 m 0
 35 421.836270662 143.307617188 540 319.400390625 540 c 0
 510.978244121 540 572.862304688 373.212890625 572.862304688 373.212890625 c 1
 402.987304688 294.10546875 l 1
 402.987304688 294.10546875 385.130610101 358.870117188 319.400390625 358.870117188 c 0
 269.141601562 358.870117188 238.229492188 323.01953125 238.229492188 269.875 c 0
 238.229492188 213.059570312 269.141601562 177.129882812 319.400390625 177.129882812 c 0
 390.097499624 177.129882812 402.958007812 246.424804688 402.958007812 246.424804688 c 1
 578.619140625 171.95703125 l 1
 578.619140625 171.95703125 525.5806902 -10 319.400390625 -10 c 0
 143.307617187 -10 35 100.230375714 35 260.099609375 c 0
EndSplineSet
Validated: 1
EndChar

StartChar: f
Encoding: 102 102 79
Width: 388
Flags: W
HStem: 0 21G<66 278.4> 400 141<15 376> 625.8 141.101<190.561 374.251>
VStem: 66 212.4<0 615.503>
LayerCount: 2
Fore
SplineSet
15 541 m 1
 376 541 l 1
 376 400 l 5
 15 400 l 5
 15 541 l 1
278.400390625 567.299804688 m 2
 278.400390625 0 l 1
 66 0 l 1
 66 592.700195312 l 2
 66 692 122.122070312 766.900390625 259 766.900390625 c 0
 378.100585938 766.900390625 414 719 414 719 c 1
 372 608 l 1
 372 608 358.623046875 625.799804688 329.700195312 625.799804688 c 0
 291.900390625 625.799804688 278.400390625 600 278.400390625 567.299804688 c 2
EndSplineSet
EndChar

StartChar: l
Encoding: 108 108 80
Width: 332
Flags: W
HStem: 0 21G<60 272.4> 737 20G<60 272.4>
VStem: 60 212.4<0 757>
LayerCount: 2
Fore
SplineSet
60 0 m 1
 60 757 l 5
 272.400390625 757 l 5
 272.400390625 0 l 1
 60 0 l 1
EndSplineSet
Validated: 1
EndChar

StartChar: n
Encoding: 110 110 81
Width: 680
Flags: W
HStem: 0 21G<60 272.4 400.971 620.4> 371.87 168.13<297.335 480.165> 511 20G<60 236.4>
VStem: 60 176.4<402.3 531> 182.5 89.9004<297.9 348.516> 400.971 219.43<0 354.193>
LayerCount: 2
Fore
SplineSet
620.400390625 293 m 2xcc
 620.400390625 0 l 1
 400.970703125 0 l 1
 400.970703125 286.125 l 2
 400.970703125 342.940429688 384.05859375 371.870117188 338.80078125 371.870117188 c 0
 293.541992188 371.870117188 272.400390625 348.515625 272.400390625 281.700195312 c 1
 182.5 297.900390625 l 1
 182.5 416.589994423 234.180664062 540 404.700195312 540 c 0
 555.629882812 540 620.400390625 446.781094078 620.400390625 293 c 2xcc
60 531 m 5xb4
 236.400390625 531 l 5
 236.400390625 402.299804688 l 5xb4
 272.400390625 321.700195312 l 5
 272.400390625 -0.001953125 l 5xac
 60 -0.001953125 l 5
 60 531 l 5xb4
EndSplineSet
EndChar

StartChar: m
Encoding: 109 109 82
Width: 1002
Flags: W
HStem: 0 21G<60 272.4 388.113 607.543 723.256 942.686> 371.87 168.13<291.779 467.308 626.921 802.45> 511 20G<60 236.4>
VStem: 60 176.4<402.3 531> 182.5 89.9004<297.9 348.516> 388.113 219.43<0 342.94> 517.643 89.9004<297.902 416.592> 723.256 219.43<0.00195312 360.527>
LayerCount: 2
Fore
SplineSet
942.685546875 293.001953125 m 2x83
 942.685546875 0.001953125 l 1
 723.255859375 0.001953125 l 1
 723.255859375 286.126953125 l 6
 723.255859375 342.942382812 708.03515625 371.872070312 667.303710938 371.872070312 c 4
 626.5703125 371.872070312 607.54296875 348.517578125 607.54296875 281.702148438 c 5x85
 517.642578125 297.90234375 l 1
 517.642578125 416.591947548 569.323242188 540.001953125 726.985351562 540.001953125 c 0
 877.915039062 540.001953125 942.685546875 446.783047203 942.685546875 293.001953125 c 2x83
607.54296875 293 m 2
 607.54296875 0 l 1
 388.11328125 0 l 1
 388.11328125 286.125 l 6
 388.11328125 342.940429688 372.892578125 371.870117188 332.161132812 371.870117188 c 4
 291.427734375 371.870117188 272.400390625 348.515625 272.400390625 281.700195312 c 5
 182.5 297.900390625 l 1
 182.5 416.589994423 234.180664062 540 391.842773438 540 c 0xcd
 542.772460938 540 607.54296875 446.781094078 607.54296875 293 c 2
60 531 m 1xb1
 236.400390625 531 l 1
 236.400390625 402.299804688 l 1xb1
 272.400390625 321.700195312 l 5
 272.400390625 -0.001953125 l 1xa9
 60 -0.001953125 l 1
 60 531 l 1xb1
EndSplineSet
EndChar

StartChar: g
Encoding: 103 103 83
Width: 683
Flags: W
HStem: -189.9 158.101<157.697 377.793> 30.9404 174.13<194.349 379.536> 366.811 174.13<200.538 381.808>
VStem: 33.1133 218.43<227.516 344.662> 403.884 219.63<236.893 334.755> 447.113 176.4<350.79 521.94> 447.113 63.9004<350.79 411.923>
LayerCount: 2
Fore
SplineSet
403.883789062 284.065429688 m 0xf8
 403.883789062 334.754882812 374.875976562 366.810546875 327.712890625 366.810546875 c 0
 280.55078125 366.810546875 251.54296875 334.754882812 251.54296875 284.065429688 c 0
 251.54296875 236.892578125 280.55078125 205.0703125 327.712890625 205.0703125 c 0
 374.875976562 205.0703125 403.883789062 236.892578125 403.883789062 284.065429688 c 0xf8
623.513671875 55.9384765625 m 2xf4
 623.513671875 -102.239257812 521.576171875 -189.900390625 325.313476562 -189.900390625 c 0
 166.970703125 -189.900390625 74 -137 74 -137 c 5
 108 9 l 1
 108 9 189.997070312 -31.7998046875 286.61328125 -31.7998046875 c 0
 363.157226562 -31.7998046875 411.11328125 -5.44140625 411.11328125 60.9384765625 c 2
 411.11328125 137.640625 l 1
 447.11328125 402.240234375 l 1
 447.11328125 521.940429688 l 1
 623.513671875 521.940429688 l 1
 623.513671875 55.9384765625 l 2xf4
511.013671875 287.83984375 m 0xf2
 511.013671875 156.807617188 440.333007812 30.9404296875 269.813476562 30.9404296875 c 0
 118.883789062 30.9404296875 33.11328125 136.861328125 33.11328125 281.83984375 c 0
 33.11328125 435.19921875 127.883789062 540.940429688 278.813476562 540.940429688 c 0
 449.333007812 540.940429688 511.013671875 411.922851562 511.013671875 287.83984375 c 0xf2
EndSplineSet
EndChar

StartChar: k
Encoding: 107 107 84
Width: 688
Flags: W
HStem: 0 21G<60 272.4 412.923 686> 511.011 20G<402.181 653> 737 20G<60 272.4>
VStem: 60 212.4<-0.00195312 757>
LayerCount: 2
Fore
SplineSet
427 0 m 1
 225 287 l 1
 418 531.010742188 l 5
 653 531.010742188 l 5
 454 307 l 1
 686 0 l 1
 427 0 l 1
60 757 m 1
 272.400390625 757 l 1
 272.400390625 -0.001953125 l 1
 60 -0.001953125 l 1
 60 757 l 1
EndSplineSet
Validated: 5
EndChar

StartChar: s
Encoding: 115 115 85
Width: 530
Flags: W
HStem: -10 123.2<176.484 292.736> 424.4 116.793<229.321 324.732>
VStem: 295.4 199.6<118.947 240.318>
LayerCount: 2
Fore
SplineSet
261.400390625 541.193359375 m 4
 450.200195312 541.193359375 474.200195312 433.200195312 474.200195312 433.200195312 c 5
 344 368.799804688 l 21
 344 368.799804688 331.204101562 424.400390625 272.200195312 424.400390625 c 4
 245.624023438 424.400390625 226 411.93359375 226 391.400390625 c 4
 226 358.400390625 261.955078125 347.794921875 315.887695312 342.158203125 c 4
 411.8984375 332.290039062 495 293.836914062 495 186.799804688 c 0
 495 77.302734375 423.799804688 -10 235 -10 c 0
 46.2001953125 -10 15 130 15 130 c 25
 156.599609375 168 l 1
 156.599609375 168 162.200195312 113.200195312 236.599609375 113.200195312 c 0
 272.836914062 113.200195312 295.400390625 123.845703125 295.400390625 147.799804688 c 0
 295.400390625 177.4140625 263.278320312 184.461914062 203.48046875 193.077148438 c 4
 94.80859375 210.379882812 29.400390625 254.80078125 29.400390625 363.599609375 c 4
 29.400390625 448.4453125 88.599609375 541.193359375 261.400390625 541.193359375 c 4
EndSplineSet
Validated: 1
EndChar

StartChar: t
Encoding: 116 116 86
Width: 498
Flags: W
HStem: -10 171.101<235.561 426.089> 377.9 153<45 439>
VStem: 106 212.4<174.884 622.9>
LayerCount: 2
Fore
SplineSet
45 377.900390625 m 5
 45 530.900390625 l 5
 439 530.900390625 l 5
 439 377.900390625 l 5
 45 377.900390625 l 5
318.400390625 219.600585938 m 6
 318.400390625 175.900390625 340.900390625 161.100585938 378.700195312 161.100585938 c 4
 407.623046875 161.100585938 429.100585938 168.30078125 429.100585938 168.30078125 c 5
 434.5 16.1005859375 l 5
 434.5 16.1005859375 393.100585938 -10 304 -10 c 4
 167.122070312 -10 106 40.900390625 106 204.200195312 c 6
 106 622.900390625 l 5
 318.400390625 697.900390625 l 5
 318.400390625 219.600585938 l 6
EndSplineSet
EndChar

StartChar: v
Encoding: 118 118 87
Width: 664
Flags: W
HStem: 511.011 20G<2 255.486 418.067 662.441>
LayerCount: 2
Fore
SplineSet
322 -20 m 1
 2 531.010742188 l 1
 248 531.010742188 l 1
 332.220703125 306 l 5
 426.44140625 531.010742188 l 1
 662.44140625 531.010742188 l 1
 342.44140625 -20 l 1
 322 -20 l 1
EndSplineSet
Validated: 1
EndChar

StartChar: w
Encoding: 119 119 88
Width: 863
Flags: W
HStem: 511 20G<2 249.281 413.897 468 632.615 862.297>
LayerCount: 2
Fore
SplineSet
269.4 -20 m 1
 2 531 l 1
 241.68 531 l 1
 315.79421875 336 l 1
 425.1084375 531 l 1
 456.7884375 531 l 1
 566.10265625 336 l 1
 640.216875 531 l 1
 862.296875 531 l 1
 586.096875 -20 l 1
 565.9084375 -20 l 1
 428.62890625 221 l 5
 289.5884375 -20 l 1
 269.4 -20 l 1
EndSplineSet
EndChar

StartChar: x
Encoding: 120 120 89
Width: 695
Flags: W
HStem: 0 21G<2 271.975 423.025 693> 511.011 20G<35 281.259 413.741 660>
LayerCount: 2
Fore
SplineSet
261 0 m 1
 2 0 l 1
 214 277 l 1
 35 531.010742188 l 1
 270 531.010742188 l 1
 413 277 l 1
 261 0 l 1
434 0 m 1
 282 277 l 1
 425 531.010742188 l 5
 660 531.010742188 l 5
 481 277 l 1
 693 0 l 1
 434 0 l 1
EndSplineSet
Validated: 5
EndChar

StartChar: y
Encoding: 121 121 90
Width: 664
Flags: W
HStem: -179.994 21G<60 309.223> 511.011 20G<2 255.486 418.067 662.441>
LayerCount: 2
Fore
SplineSet
218 109 m 1
 2 531.010742188 l 1
 248 531.010742188 l 1
 332.220703125 306 l 1
 426.44140625 531.010742188 l 1
 662.44140625 531.010742188 l 1
 299 -179.994140625 l 1
 60 -179.994140625 l 5
 218 109 l 1
EndSplineSet
Validated: 1
EndChar

StartChar: z
Encoding: 122 122 91
Width: 548
Flags: W
HStem: 0 178<385.4 524> 0 168<326 464.6> 352.934 178<34 165.6>
LayerCount: 2
Fore
SplineSet
222 362.93359375 m 1x60
 34 352.93359375 l 1
 34 530.93359375 l 1
 546 530.93359375 l 1
 546 507.93359375 l 1
 326 168 l 1x60
 524 178 l 1
 524 0 l 1xa0
 2 0 l 1
 2 23 l 1
 222 362.93359375 l 1x60
EndSplineSet
Validated: 1
EndChar

StartChar: backslash
Encoding: 92 92 92
Width: 550
Flags: W
LayerCount: 2
Fore
SplineSet
548 -199.994140625 m 1
 332 -199.994140625 l 5
 2 777.001953125 l 1
 218 777.001953125 l 1
 548 -199.994140625 l 1
EndSplineSet
Validated: 1
EndChar

StartChar: parenleft
Encoding: 40 40 93
Width: 416
Flags: W
VStem: 35 204.811<117.823 465.72>
LayerCount: 2
Fore
SplineSet
401 -24.966796875 m 1
 401 -200 l 1
 175.060546875 -200 35 2.01351351351 35 295 c 0
 35 574.672823219 175.060546875 779 401 779 c 1
 401 603.966796875 l 1
 298.928659812 603.966796875 239.810546875 485.878806063 239.810546875 298.083007812 c 0
 239.810546875 92.9349192296 298.928659812 -24.966796875 401 -24.966796875 c 1
EndSplineSet
Validated: 1
EndChar

StartChar: parenright
Encoding: 41 41 94
Width: 416
Flags: W
VStem: 176.189 204.811<117.823 465.72>
LayerCount: 2
Fore
SplineSet
15 -24.966796875 m 5
 117.071289062 -24.966796875 176.189453125 92.9345703125 176.189453125 298.083007812 c 4
 176.189453125 485.87890625 117.071289062 603.966796875 15 603.966796875 c 5
 15 779 l 5
 240.939453125 779 381 574.672851562 381 295 c 4
 381 2.013671875 240.939453125 -200 15 -200 c 5
 15 -24.966796875 l 5
EndSplineSet
Validated: 1
EndChar

StartChar: bar
Encoding: 124 124 95
Width: 326
Flags: W
VStem: 60 206<-199.994 777.002>
LayerCount: 2
Fore
SplineSet
266 -199.994140625 m 1
 60 -199.994140625 l 1
 60 777.001953125 l 1
 266 777.001953125 l 1
 266 -199.994140625 l 1
EndSplineSet
Validated: 1
EndChar

StartChar: bracketleft
Encoding: 91 91 96
Width: 431
Flags: W
HStem: -199.994 166.996<266 416> 610.006 166.996<266 416>
VStem: 60 356<-199.994 -32.998 610.006 777.002> 60 206<-32.998 610.006>
LayerCount: 2
Fore
SplineSet
60 777.001953125 m 1xe0
 416 777.001953125 l 1
 416 610.005859375 l 1xe0
 266 610.005859375 l 1
 266 -32.998046875 l 1xd0
 416 -32.998046875 l 1
 416 -199.994140625 l 1
 60 -199.994140625 l 1
 60 777.001953125 l 1xe0
EndSplineSet
Validated: 1
EndChar

StartChar: bracketright
Encoding: 93 93 97
Width: 431
Flags: W
HStem: -199.994 166.996<15 165> 610.006 166.996<15 165>
VStem: 15 356<-199.994 -32.998 610.006 777.002> 165 206<-32.998 610.006>
LayerCount: 2
Fore
SplineSet
371 777.001953125 m 5xe0
 371 -199.994140625 l 5
 15 -199.994140625 l 5
 15 -32.998046875 l 5xe0
 165 -32.998046875 l 5
 165 610.005859375 l 5xd0
 15 610.005859375 l 5
 15 777.001953125 l 5
 371 777.001953125 l 5xe0
EndSplineSet
Validated: 1
EndChar

StartChar: sterling
Encoding: 163 163 98
Width: 670
Flags: W
HStem: 0 203<508.9 630> 273 134<46 454> 570 168.992<310.017 418.224>
VStem: 65 225<438.361 551.871> 134 206<241.728 399.003>
LayerCount: 2
Fore
SplineSet
46 407 m 1xe0
 454 407 l 1
 454 273 l 1
 46 273 l 1
 46 407 l 1xe0
351 738.9921875 m 4
 612 738.9921875 625 555 625 555 c 1
 449 467 l 1
 449 467 445 570 366 570 c 0
 314 570 290 540 290 497 c 0xf0
 290 425 340 406 340 320 c 0
 340 255.952148438 284 183 284 183 c 1
 630 203 l 1
 630 0 l 1
 1 0 l 1
 1 31 l 1
 1 31 134 186 134 308 c 0xe8
 134 392.005859375 65 430 65 529 c 0xf0
 65 625 138 738.9921875 351 738.9921875 c 4
EndSplineSet
EndChar

StartChar: asciicircum
Encoding: 94 94 99
Width: 434
Flags: W
HStem: 450 301
LayerCount: 2
Fore
SplineSet
227.44140625 751 m 1
 437.44140625 450 l 1
 271.44140625 450 l 1
 217.220703125 561 l 5
 163 450 l 1
 -3 450 l 1
 207 751 l 1
 227.44140625 751 l 1
EndSplineSet
EndChar

StartChar: underscore
Encoding: 95 95 100
Width: 880
Flags: W
HStem: -134 134<40 840>
LayerCount: 2
Fore
SplineSet
40 0 m 1
 840 0 l 5
 840 -134 l 5
 40 -134 l 1
 40 0 l 1
EndSplineSet
EndChar

StartChar: acute
Encoding: 180 180 101
Width: 294
Flags: W
HStem: 530 221
VStem: 2 290.441
LayerCount: 2
Fore
SplineSet
2 530 m 1
 66.44140625 751 l 1
 292.44140625 751 l 5
 22.44140625 530 l 1
 2 530 l 1
EndSplineSet
EndChar

StartChar: grave
Encoding: 96 96 102
Width: 294
Flags: W
HStem: 530 221
VStem: 2 290.441
LayerCount: 2
Fore
SplineSet
292.44140625 530 m 1
 272 530 l 1
 2 751 l 1
 228 751 l 1
 292.44140625 530 l 1
EndSplineSet
EndChar

StartChar: asterisk
Encoding: 42 42 103
Width: 535
Flags: W
HStem: 530 21G<250.132 285.556> 731 20G<174.644 360.644>
LayerCount: 2
Fore
SplineSet
274.49609375 464.633789062 m 1
 291.240234375 476.359375 l 1
 485.991210938 342.93359375 l 1
 333.627929688 236.247070312 l 1
 274.49609375 464.633789062 l 1
260.791015625 465.633789062 m 1
 201.659179688 237.247070312 l 1
 49.2958984375 343.93359375 l 1
 244.046875 477.359375 l 1
 260.791015625 465.633789062 l 1
290.236328125 512.518554688 m 1
 469.671875 665.684570312 l 1
 533.287109375 493.309570312 l 1
 297.227539062 493.309570312 l 1
 290.236328125 512.518554688 l 1
245.05078125 512.518554688 m 1
 238.059570312 493.309570312 l 1
 2 493.309570312 l 1
 65.615234375 665.684570312 l 1
 245.05078125 512.518554688 l 1
278.084960938 530 m 1
 257.643554688 530 l 1
 174.643554688 751 l 1
 360.643554688 751 l 1
 278.084960938 530 l 1
EndSplineSet
EndChar

StartChar: at
Encoding: 64 64 104
Width: 913
Flags: W
HStem: -137.45 117.102<348.215 628.809> 87.3496 132.513<412.945 501.775> 87.3496 114.166<678.555 745.821> 346.528 124.847<359.663 493.14> 573.748 112.702<340.098 597.875>
VStem: 35 136.353<151.792 399.845> 247.459 152.935<233.538 335.349> 513.538 155.505<244.904 321.541> 520.938 148.104<221.188 456.942> 520.938 59.5986<205.746 363.161> 762.552 116.414<216.489 425.907>
LayerCount: 2
Fore
SplineSet
513.538085938 284.501953125 m 4xdf20
 513.538085938 321.541015625 491.993164062 346.528320312 456.965820312 346.528320312 c 4
 421.9375 346.528320312 400.393554688 321.541015625 400.393554688 284.501953125 c 4
 400.393554688 244.904296875 421.9375 219.862304688 456.965820312 219.862304688 c 4
 491.993164062 219.862304688 513.538085938 244.904296875 513.538085938 284.501953125 c 4xdf20
580.537109375 250.5078125 m 4xde60
 580.537109375 170.518554688 537.547851562 87.349609375 418.702148438 87.349609375 c 4
 313.510742188 87.349609375 247.458984375 164.174804688 247.458984375 275.598632812 c 4
 247.458984375 388.724609375 307.237304688 471.375 412.430664062 471.375 c 4
 531.275390625 471.375 580.537109375 363.161132812 580.537109375 250.5078125 c 4xde60
35 269.549804688 m 4
 35 510.450195312 196.700195312 686.450195312 459.600585938 686.450195312 c 4
 704.900390625 686.450195312 878.965820312 553.032226562 878.965820312 306.950195312 c 4
 878.965820312 152.274414062 796.825195312 87.349609375 693.702148438 87.349609375 c 4
 535.026367188 87.349609375 520.938476562 205.74609375 520.938476562 330.6171875 c 6
 520.938476562 456.942382812 l 5
 669.04296875 456.942382812 l 5xbea0
 669.04296875 276.366210938 l 6
 669.04296875 221.188476562 685.838867188 201.515625 709.58984375 201.515625 c 4xbf20
 745.451171875 201.515625 762.551757812 235.405273438 762.551757812 308.875 c 4
 762.551757812 478.8671875 660.342773438 573.748046875 453.814453125 573.748046875 c 4
 294.595703125 573.748046875 171.352539062 471.017578125 171.352539062 269.873046875 c 4
 171.352539062 79.744140625 295.805664062 -20.3486328125 476.8046875 -20.3486328125 c 4
 654.654296875 -20.3486328125 746.440429688 57.8720703125 746.440429688 57.8720703125 c 5
 810.5 -34.0498046875 l 5
 810.5 -34.0498046875 738.178710938 -137.450195312 470.600585938 -137.450195312 c 4
 196.700195312 -137.450195312 35 28.650390625 35 269.549804688 c 4
EndSplineSet
Substitution2: "'case' Case-Sensitive Forms in Latin lookup 0-1" at.case
EndChar

StartChar: hyphen.case
Encoding: 65537 -1 105
Width: 438
Flags: W
HStem: 258 214<40 398>
LayerCount: 2
Fore
SplineSet
40 472 m 1
 398 472 l 1
 398 258 l 1
 40 258 l 1
 40 472 l 1
EndSplineSet
EndChar

StartChar: at.case
Encoding: 65538 -1 106
Width: 913
Flags: W
HStem: -47.4502 117.102<348.215 628.809> 177.35 132.513<412.945 501.775> 177.35 114.166<678.555 745.821> 436.528 124.847<359.663 493.14> 663.748 112.702<340.098 597.875>
VStem: 35 136.353<241.792 489.845> 247.459 152.935<323.538 425.349> 513.538 155.505<334.904 411.541> 520.938 148.104<311.188 546.942> 520.938 59.5986<295.746 453.161> 762.552 116.414<306.489 515.907>
LayerCount: 2
Fore
SplineSet
513.538085938 374.501953125 m 4xdf20
 513.538085938 411.541015625 491.993164062 436.528320312 456.965820312 436.528320312 c 4
 421.9375 436.528320312 400.393554688 411.541015625 400.393554688 374.501953125 c 4
 400.393554688 334.904296875 421.9375 309.862304688 456.965820312 309.862304688 c 4
 491.993164062 309.862304688 513.538085938 334.904296875 513.538085938 374.501953125 c 4xdf20
580.537109375 340.5078125 m 4xde60
 580.537109375 260.518554688 537.547851562 177.349609375 418.702148438 177.349609375 c 4
 313.510742188 177.349609375 247.458984375 254.174804688 247.458984375 365.598632812 c 4
 247.458984375 478.724609375 307.237304688 561.375 412.430664062 561.375 c 4
 531.275390625 561.375 580.537109375 453.161132812 580.537109375 340.5078125 c 4xde60
35 359.549804688 m 4
 35 600.450195312 196.700195312 776.450195312 459.600585938 776.450195312 c 4
 704.900390625 776.450195312 878.965820312 643.032226562 878.965820312 396.950195312 c 4
 878.965820312 242.274414062 796.825195312 177.349609375 693.702148438 177.349609375 c 4
 535.026367188 177.349609375 520.938476562 295.74609375 520.938476562 420.6171875 c 6
 520.938476562 546.942382812 l 5
 669.04296875 546.942382812 l 5xbea0
 669.04296875 366.366210938 l 6
 669.04296875 311.188476562 685.838867188 291.515625 709.58984375 291.515625 c 4xbf20
 745.451171875 291.515625 762.551757812 325.405273438 762.551757812 398.875 c 4
 762.551757812 568.8671875 660.342773438 663.748046875 453.814453125 663.748046875 c 4
 294.595703125 663.748046875 171.352539062 561.017578125 171.352539062 359.873046875 c 4
 171.352539062 169.744140625 295.805664062 69.6513671875 476.8046875 69.6513671875 c 4
 654.654296875 69.6513671875 746.440429688 147.872070312 746.440429688 147.872070312 c 5
 810.5 55.9501953125 l 5
 810.5 55.9501953125 738.178710938 -47.4501953125 470.600585938 -47.4501953125 c 4
 196.700195312 -47.4501953125 35 118.650390625 35 359.549804688 c 4
EndSplineSet
EndChar

StartChar: braceleft
Encoding: 123 123 107
Width: 541
Flags: W
HStem: -210.002 166.996<397.572 510.406> 232 164<40 154.439> 620.006 166.996<397.572 510.274>
VStem: 170 206<-23.4384 213.164 414.745 600.438>
LayerCount: 2
Fore
SplineSet
303 314 m 1
 303 314 376 299 376 209 c 2
 376 40.994140625 l 2
 376 -11.8349609375 401.8828125 -43.005859375 448 -43.005859375 c 0
 498 -43.005859375 509 -33.005859375 509 -33.005859375 c 1
 526 -200.001953125 l 1
 526 -200.001953125 486 -210.001953125 406 -210.001953125 c 0
 261.700195312 -210.001953125 170 -132.133789062 170 -0.001953125 c 2
 170 160 l 2
 170 207.328125 143.138671875 232 100 232 c 2
 40 232 l 1
 40 396 l 1
 100 396 l 2
 143.138671875 396 170 420.671875 170 468 c 2
 170 577.001953125 l 2
 170 709.133789062 261.700195312 787.001953125 406 787.001953125 c 0
 479 787.001953125 526 777.001953125 526 777.001953125 c 1
 509 610.005859375 l 1
 509 610.005859375 490 620.005859375 448 620.005859375 c 0
 401.8828125 620.005859375 376 588.834960938 376 536.005859375 c 2
 376 419 l 2
 376 327 303 314 303 314 c 1
EndSplineSet
EndChar

StartChar: braceright
Encoding: 125 125 108
Width: 541
Flags: W
HStem: -210.002 166.996<30.5939 143.428> 232 164<386.561 501> 620.006 166.996<30.7265 143.428>
VStem: 165 206<-23.4384 213.164 414.745 600.438>
LayerCount: 2
Fore
SplineSet
238 314 m 5
 238 314 165 327 165 419 c 6
 165 536.005859375 l 6
 165 588.834960938 139.1171875 620.005859375 93 620.005859375 c 4
 51 620.005859375 32 610.005859375 32 610.005859375 c 5
 15 777.001953125 l 5
 15 777.001953125 62 787.001953125 135 787.001953125 c 4
 279.299804688 787.001953125 371 709.133789062 371 577.001953125 c 6
 371 468 l 6
 371 420.671875 397.861328125 396 441 396 c 6
 501 396 l 5
 501 232 l 5
 441 232 l 6
 397.861328125 232 371 207.328125 371 160 c 6
 371 -0.001953125 l 6
 371 -132.133789062 279.299804688 -210.001953125 135 -210.001953125 c 4
 55 -210.001953125 15 -200.001953125 15 -200.001953125 c 5
 32 -33.005859375 l 5
 32 -33.005859375 43 -43.005859375 93 -43.005859375 c 4
 139.1171875 -43.005859375 165 -11.8349609375 165 40.994140625 c 6
 165 209 l 6
 165 299 238 314 238 314 c 5
EndSplineSet
EndChar

StartChar: cent
Encoding: 162 162 109
Width: 593
Flags: W
HStem: -10 187.13<206.225 451.244> 358.87 181.13<206.225 443.64>
VStem: 35 203.229<202.395 333.37> 282 78<-77 614>
LayerCount: 2
Fore
SplineSet
282 -77 m 5
 282 614 l 5
 360 614 l 5
 360 -77 l 5
 282 -77 l 5
35 260.099609375 m 0
 35 421.836270662 143.307617188 540 319.400390625 540 c 0
 510.978244121 540 572.862304688 373.212890625 572.862304688 373.212890625 c 1
 402.987304688 294.10546875 l 1
 402.987304688 294.10546875 385.130610101 358.870117188 319.400390625 358.870117188 c 0
 269.141601562 358.870117188 238.229492188 323.01953125 238.229492188 269.875 c 0
 238.229492188 213.059570312 269.141601562 177.129882812 319.400390625 177.129882812 c 0
 390.097499624 177.129882812 402.958007812 246.424804688 402.958007812 246.424804688 c 1
 578.619140625 171.95703125 l 1
 578.619140625 171.95703125 525.5806902 -10 319.400390625 -10 c 0
 143.307617187 -10 35 100.230375714 35 260.099609375 c 0
EndSplineSet
EndChar

StartChar: yen
Encoding: 165 165 110
Width: 782
Flags: W
HStem: 0 21G<263 519> 103 74<126 656> 243 74<126 274 508 656> 303 14<274 508> 711.008 20G<2 292.847 489.153 780>
VStem: 263 256<0 441>
LayerCount: 2
Fore
SplineSet
656 103 m 1xcc
 126 103 l 1
 126 177 l 1
 656 177 l 1
 656 103 l 1xcc
656 243 m 1xec
 126 243 l 1
 126 317 l 1
 656 317 l 1
 656 243 l 1xec
274 303 m 1xdc
 2 731.0078125 l 1
 284 731.0078125 l 1
 391 489.111328125 l 5
 498 731.0078125 l 1
 780 731.0078125 l 1
 508 303 l 1
 274 303 l 1xdc
263 0 m 1
 263 441 l 5
 519 441 l 5
 519 0 l 1
 263 0 l 1
EndSplineSet
EndChar

StartChar: copyright
Encoding: 169 169 111
Width: 842
Flags: W
HStem: -10 149.8<325.504 536.47> 274.82 179.359<377.472 488.793> 589.2 149.8<325.504 535.526>
VStem: 35 165.785<262.181 460.435>
CounterMasks: 1 e0
LayerCount: 2
Fore
SplineSet
200.78515625 361.799804688 m 0
 200.78515625 230.400390625 288.985351562 139.799804688 432.385742188 139.799804688 c 0
 614.336914062 139.799804688 646.408203125 295.14453125 646.408203125 295.14453125 c 1
 514.252929688 335.205078125 l 1
 514.252929688 335.205078125 499.1328125 274.8203125 432.352539062 274.8203125 c 0
 382.5 274.8203125 351.837890625 309.232421875 351.837890625 363.649414062 c 0
 351.837890625 417.7109375 382.5 454.1796875 432.352539062 454.1796875 c 0
 501.817382812 454.1796875 509.77734375 391.206054688 509.77734375 391.206054688 c 1
 650.141601562 446.822265625 l 1
 650.141601562 446.822265625 608.499023438 589.200195312 432.385742188 589.200195312 c 0
 288.985351562 589.200195312 200.78515625 493.200195312 200.78515625 361.799804688 c 0
35 360 m 0
 35 579 182 739 421 739 c 0
 660 739 807 579 807 360 c 0
 807 141 660 -10 421 -10 c 0
 182 -10 35 141 35 360 c 0
EndSplineSet
EndChar

StartChar: registered.ss01
Encoding: 65539 -1 112
Width: 347
Flags: W
HStem: 487.361 56.2324<103.605 157.473 199.808 255.738> 632.369 32.4004<157.473 187.231> 701.489 55.5127<103.605 234.79>
VStem: 35 67.1758<543.77 698.379> 157.473 29.7637<632.732 664.33> 244.088 68.832<576.507 690.447>
LayerCount: 2
Fore
SplineSet
157.47265625 632.369140625 m 1
 157.47265625 664.76953125 l 1
 166.975585938 664.76953125 l 2
 180.575195312 664.76953125 187.236328125 658.642578125 187.236328125 648.818359375 c 0
 187.236328125 638.594726562 180.799804688 632.369140625 166.975585938 632.369140625 c 2
 157.47265625 632.369140625 l 1
35 620.561523438 m 0
 35 699.401367188 87.919921875 757.001953125 173.959960938 757.001953125 c 0
 260 757.001953125 312.919921875 699.401367188 312.919921875 620.561523438 c 0
 312.919921875 541.721679688 260 487.361328125 173.959960938 487.361328125 c 0
 87.919921875 487.361328125 35 541.721679688 35 620.561523438 c 0
157.47265625 593.2734375 m 1
 170.260742188 593.2734375 l 1
 199.807617188 543.59375 l 1
 265.904296875 543.59375 l 1
 218.4375 606.478515625 l 1
 233.91796875 615.828125 244.087890625 630.319335938 244.087890625 650.513671875 c 0
 244.087890625 681.827148438 222.778320312 701.489257812 174.319335938 701.489257812 c 2
 102.17578125 701.489257812 l 1
 102.17578125 543.59375 l 1
 157.47265625 543.59375 l 1
 157.47265625 593.2734375 l 1
EndSplineSet
EndChar

StartChar: registered
Encoding: 174 174 113
Width: 842
Flags: W
HStem: -10 156.2<277.939 375.2 492.8 564.061> 392.8 90<375.2 451.876> 584.8 154.2<277.939 535.802>
VStem: 35 186.6<226.912 494.192> 375.2 82.6797<399.768 475.975> 615.8 191.2<250.5 494.798>
LayerCount: 2
Fore
SplineSet
375.200195312 392.799804688 m 5
 375.200195312 482.799804688 l 5
 401.599609375 482.799804688 l 6
 439.375976562 482.799804688 457.879882812 465.779296875 457.879882812 438.490234375 c 4
 457.879882812 410.090820312 440 392.799804688 401.599609375 392.799804688 c 6
 375.200195312 392.799804688 l 5
35 360 m 4
 35 579 182 739 421 739 c 4
 660 739 807 579 807 360 c 4
 807 141 660 -10 421 -10 c 4
 182 -10 35 141 35 360 c 4
375.200195312 284.200195312 m 5
 410.724609375 284.200195312 l 5
 492.799804688 146.200195312 l 5
 676.400390625 146.200195312 l 5
 544.547851562 320.879882812 l 5
 587.549804688 346.850585938 615.799804688 387.10546875 615.799804688 443.200195312 c 4
 615.799804688 530.182617188 556.606445312 584.799804688 422 584.799804688 c 6
 221.599609375 584.799804688 l 5
 221.599609375 146.200195312 l 5
 375.200195312 146.200195312 l 5
 375.200195312 284.200195312 l 5
EndSplineSet
Substitution2: "'ss01' Style Set 1 in Latin lookup 1-1" registered.ss01
EndChar

StartChar: uni2117
Encoding: 8471 8471 114
Width: 842
Flags: W
HStem: -10 156.2<277.939 397> 374.8 90<397 479.676> 584.8 154.2<277.939 554.792>
VStem: 35 208.4<226.912 494.192> 397 88.6797<381.958 458.165> 643.6 163.4<338.548 494.79>
LayerCount: 2
Fore
SplineSet
35 360 m 0
 35 579 182 739 421 739 c 0
 660 739 807 579 807 360 c 0
 807 141 660 -10 421 -10 c 0
 182 -10 35 141 35 360 c 0
397 266.200195312 m 5
 449.799804688 266.200195312 l 6
 583.1640625 266.200195312 643.599609375 327.299804688 643.599609375 422.200195312 c 4
 643.599609375 518.182617188 584.407226562 584.799804688 449.799804688 584.799804688 c 6
 243.400390625 584.799804688 l 5
 243.400390625 146.200195312 l 5
 397 146.200195312 l 5
 397 266.200195312 l 5
397 374.799804688 m 5
 397 464.799804688 l 5
 429.400390625 464.799804688 l 6
 467.17578125 464.799804688 485.6796875 448.379882812 485.6796875 421.08984375 c 4
 485.6796875 392.690429688 467.799804688 374.799804688 429.400390625 374.799804688 c 6
 397 374.799804688 l 5
EndSplineSet
EndChar

StartChar: plusminus
Encoding: 177 177 115
Width: 500
Flags: W
HStem: 167 134<40 178 322 460> 265 36<178 322> 347 134<40 460>
VStem: 178 144<265 563>
LayerCount: 2
Fore
SplineSet
40 301 m 5xb0
 460 301 l 5
 460 167 l 5
 40 167 l 5
 40 301 l 5xb0
40 481 m 1
 460 481 l 1
 460 347 l 1
 40 347 l 1
 40 481 l 1
178 265 m 5x70
 178 563 l 1
 322 563 l 1
 322 265 l 5
 178 265 l 5x70
EndSplineSet
EndChar

StartChar: macron
Encoding: 175 175 116
Width: 460
Flags: W
HStem: 597.008 134<40 420>
LayerCount: 2
Fore
SplineSet
40 731.0078125 m 1
 420 731.0078125 l 5
 420 597.0078125 l 5
 40 597.0078125 l 1
 40 731.0078125 l 1
EndSplineSet
EndChar

StartChar: uni00AD
Encoding: 173 173 117
Width: 438
Flags: W
HStem: 202 214<40 398>
LayerCount: 2
Fore
SplineSet
40 416 m 5
 398 416 l 5
 398 202 l 5
 40 202 l 5
 40 416 l 5
EndSplineSet
EndChar

StartChar: logicalnot
Encoding: 172 172 118
Width: 558
Flags: W
HStem: 294 172<40 330>
VStem: 330 188<132 294>
LayerCount: 2
Fore
SplineSet
518 466 m 5
 518 132 l 5
 330 132 l 5
 330 294 l 5
 40 294 l 1
 40 466 l 1
 518 466 l 5
EndSplineSet
EndChar

StartChar: brokenbar
Encoding: 166 166 119
Width: 326
Flags: W
VStem: 60 206<-200 246.996 330.006 777.002>
LayerCount: 2
Fore
SplineSet
266 -200 m 1
 60 -200 l 1
 60 246.99609375 l 5
 266 246.99609375 l 5
 266 -200 l 1
266 330.005859375 m 5
 60 330.005859375 l 5
 60 777.001953125 l 1
 266 777.001953125 l 1
 266 330.005859375 l 5
EndSplineSet
EndChar

StartChar: dieresis
Encoding: 168 168 120
Width: 606
Flags: W
HStem: 562 169<60.1943 275.806 330.194 545.806>
VStem: 60 216<562.194 730.806> 330 216<562.194 730.806>
LayerCount: 2
Fore
SplineSet
355.200195312 562 m 30
 340.799804688 562 330 572.799804688 330 587.200195312 c 30
 330 705.799804688 l 30
 330 720.200195312 340.799804688 731 355.200195312 731 c 30
 520.799804688 731 l 30
 535.200195312 731 546 720.200195312 546 705.799804688 c 30
 546 587.200195312 l 30
 546 572.799804688 535.200195312 562 520.799804688 562 c 30
 355.200195312 562 l 30
85.2001953125 562 m 26
 70.7998046875 562 60 572.799804688 60 587.200195312 c 26
 60 705.799804688 l 26
 60 720.200195312 70.7998046875 731 85.2001953125 731 c 26
 250.799804688 731 l 26
 265.200195312 731 276 720.200195312 276 705.799804688 c 26
 276 587.200195312 l 26
 276 572.799804688 265.200195312 562 250.799804688 562 c 26
 85.2001953125 562 l 26
EndSplineSet
EndChar

StartChar: section
Encoding: 167 167 121
Width: 530
Flags: W
HStem: -31.9941 123.2<176.484 292.736> 650.199 116.793<229.321 324.732>
VStem: 29.4004 196.6<543.935 645.559> 29.4004 154.6<292.903 401.312> 295.4 199.6<98.8549 208.324> 340.368 149.6<337.506 446.137>
LayerCount: 2
Fore
SplineSet
203.48046875 418.875976562 m 0xe4
 92 458 29.400390625 500.599609375 29.400390625 589.3984375 c 0
 29.400390625 674.244140625 88.599609375 766.9921875 261.400390625 766.9921875 c 0
 450.200195312 766.9921875 474.200195312 658.999023438 474.200195312 658.999023438 c 1
 344 594.598632812 l 17
 344 594.598632812 331.204101562 650.19921875 272.200195312 650.19921875 c 0
 245.624023438 650.19921875 226 637.732421875 226 617.19921875 c 0
 226 584.19921875 277.154296875 574.8515625 315.887695312 567.95703125 c 0
 428 548 489.967773438 486.233398438 489.967773438 406.040039062 c 0
 489.967773438 316.625976562 393.368164062 273.040039062 393.368164062 273.040039062 c 1
 306.368164062 303.040039062 l 1
 306.368164062 303.040039062 340.368164062 324 340.368164062 351 c 0
 340.368164062 398.633789062 254.777441573 400.873325609 203.48046875 418.875976562 c 0xe4
126 466 m 1
 213 436 l 1
 213 436 184 423.9765625 184 388.40625 c 0
 184 349 217 331 315.887695312 320.1640625 c 0
 411.830078125 309.651367188 495 261.842773438 495 154.805664062 c 0
 495 55.30859375 423.799804688 -31.994140625 235 -31.994140625 c 0
 46.2001953125 -31.994140625 15 108.005859375 15 108.005859375 c 25
 156.599609375 146.005859375 l 1
 156.599609375 146.005859375 162.200195312 91.2060546875 236.599609375 91.2060546875 c 0
 272.836914062 91.2060546875 295.400390625 101.8515625 295.400390625 125.805664062 c 0
 295.400390625 155.419921875 263.14453125 161.583007812 203.48046875 171.083007812 c 0
 94.80859375 188.385742188 29.400390625 252.806640625 29.400390625 333 c 0xd8
 29.400390625 422.4140625 126 466 126 466 c 1
EndSplineSet
EndChar

StartChar: guillemotleft
Encoding: 171 171 122
Width: 774
Flags: W
LayerCount: 2
Fore
SplineSet
342 291 m 5
 542 491 l 5
 772 491 l 5
 558.75 264 l 5
 772 37 l 5
 542 37 l 5
 342 237 l 5
 342 291 l 5
2 291 m 5
 202 491 l 5
 432 491 l 5
 218.75 264 l 5
 432 37 l 5
 202 37 l 5
 2 237 l 5
 2 291 l 5
EndSplineSet
Substitution2: "'case' Case-Sensitive Forms in Latin lookup 0-1" guillemotleft.case
EndChar

StartChar: guillemotright
Encoding: 187 187 123
Width: 774
Flags: W
LayerCount: 2
Fore
SplineSet
432 291 m 5
 432 237 l 5
 232 37 l 5
 2 37 l 5
 215.25 264 l 5
 2 491 l 5
 232 491 l 5
 432 291 l 5
772 291 m 5
 772 237 l 5
 572 37 l 5
 342 37 l 5
 555.25 264 l 5
 342 491 l 5
 572 491 l 5
 772 291 l 5
EndSplineSet
Substitution2: "'case' Case-Sensitive Forms in Latin lookup 0-1" guillemotright.case
EndChar

StartChar: guilsinglleft
Encoding: 8249 8249 124
Width: 434
Flags: W
LayerCount: 2
Fore
SplineSet
2 291 m 5
 202 491 l 5
 432 491 l 5
 218.75 264 l 5
 432 37 l 5
 202 37 l 5
 2 237 l 5
 2 291 l 5
EndSplineSet
Substitution2: "'case' Case-Sensitive Forms in Latin lookup 0-1" guilsinglleft.case
EndChar

StartChar: guilsinglright
Encoding: 8250 8250 125
Width: 434
Flags: W
LayerCount: 2
Fore
SplineSet
432 291 m 5
 432 237 l 5
 232 37 l 5
 2 37 l 5
 215.25 264 l 5
 2 491 l 5
 232 491 l 5
 432 291 l 5
EndSplineSet
Substitution2: "'case' Case-Sensitive Forms in Latin lookup 0-1" guilsinglright.case
EndChar

StartChar: guillemotleft.case
Encoding: 65540 -1 126
Width: 774
Flags: W
LayerCount: 2
Fore
SplineSet
342 391 m 5
 542 591 l 5
 772 591 l 5
 558.75 364 l 5
 772 137 l 5
 542 137 l 5
 342 337 l 5
 342 391 l 5
2 391 m 5
 202 591 l 5
 432 591 l 5
 218.75 364 l 5
 432 137 l 5
 202 137 l 5
 2 337 l 5
 2 391 l 5
EndSplineSet
EndChar

StartChar: guillemotright.case
Encoding: 65541 -1 127
Width: 774
Flags: W
LayerCount: 2
Fore
SplineSet
432 391 m 5
 432 337 l 5
 232 137 l 5
 2 137 l 5
 215.25 364 l 5
 2 591 l 5
 232 591 l 5
 432 391 l 5
772 391 m 5
 772 337 l 5
 572 137 l 5
 342 137 l 5
 555.25 364 l 5
 342 591 l 5
 572 591 l 5
 772 391 l 5
EndSplineSet
EndChar

StartChar: guilsinglleft.case
Encoding: 65542 -1 128
Width: 434
Flags: W
LayerCount: 2
Fore
SplineSet
2 391 m 5
 202 591 l 5
 432 591 l 5
 218.75 364 l 5
 432 137 l 5
 202 137 l 5
 2 337 l 5
 2 391 l 5
EndSplineSet
EndChar

StartChar: guilsinglright.case
Encoding: 65543 -1 129
Width: 434
Flags: W
LayerCount: 2
Fore
SplineSet
432 391 m 5
 432 337 l 5
 232 137 l 5
 2 137 l 5
 215.25 364 l 5
 2 591 l 5
 232 591 l 5
 432 391 l 5
EndSplineSet
EndChar

StartChar: mu
Encoding: 181 181 130
Width: 680
Flags: W
HStem: -179.992 21G<60 276.4> -10.002 188.13<291.729 391.625> 510 21.0098G<60 276.4 408 620.4>
VStem: 60 216.4<232.098 531.01> 204.7 71.7002<113.408 232.098> 408 212.4<228.298 530>
LayerCount: 2
Fore
SplineSet
620.400390625 -1.001953125 m 1xe4
 444 -1.001953125 l 1
 444 127.698242188 l 1
 408 228.297851562 l 1
 408 530 l 1
 620.400390625 530 l 1
 620.400390625 -1.001953125 l 1xe4
342.700195312 -10.001953125 m 0
 242.180664062 -10.001953125 204.700195312 113.408203125 204.700195312 232.09765625 c 1xec
 275.600585938 268.297851562 l 1
 275.600585938 201.482421875 296.7421875 178.127929688 342.000976562 178.127929688 c 0
 386.858398438 178.127929688 408 201.482421875 408 268.297851562 c 1
 497.900390625 232.09765625 l 1
 497.900390625 113.408203125 443.219726562 -10.001953125 342.700195312 -10.001953125 c 0
60 531.009765625 m 1xf4
 276.400390625 531.009765625 l 1xf4
 276.400390625 -179.990234375 l 1xec
 60 -179.9921875 l 1
 60 531.009765625 l 1xf4
EndSplineSet
EndChar

StartChar: periodcentered
Encoding: 183 183 131
Width: 370
Flags: W
HStem: 170 250<60.6897 309.31>
VStem: 60 250<170.69 419.31>
LayerCount: 2
Fore
SplineSet
88 170 m 30
 72 170 60 182 60 198 c 30
 60 392 l 30
 60 408 72 420 88 420 c 30
 282 420 l 30
 298 420 310 408 310 392 c 30
 310 198 l 30
 310 182 298 170 282 170 c 30
 88 170 l 30
EndSplineSet
EndChar

StartChar: degree
Encoding: 176 176 134
Width: 466
Flags: W
HStem: 364.492 127.463<189.923 276.077> 611.529 127.463<189.923 276.077>
VStem: 35 144.324<503.657 599.808> 286.676 144.324<503.657 599.808>
LayerCount: 2
Fore
SplineSet
179.32421875 551.174804688 m 0
 179.32421875 514.896484375 199.765625 491.955078125 233 491.955078125 c 0
 266.234375 491.955078125 286.67578125 514.896484375 286.67578125 551.174804688 c 0
 286.67578125 587.216796875 266.234375 611.529296875 233 611.529296875 c 0
 199.765625 611.529296875 179.32421875 587.216796875 179.32421875 551.174804688 c 0
35 549.4921875 m 0
 35 658.9921875 113.5 738.9921875 233 738.9921875 c 0
 352.5 738.9921875 431 658.9921875 431 549.4921875 c 4
 431 439.9921875 352.5 364.4921875 233 364.4921875 c 0
 113.5 364.4921875 35 439.9921875 35 549.4921875 c 0
EndSplineSet
EndChar

StartChar: paragraph
Encoding: 182 182 135
Width: 762
Flags: W
HStem: -120 193<329.314 531.5> 711 20G<190.828 376 446 702>
VStem: 35 341<329.611 599.47> 446 256<89.4543 731>
LayerCount: 2
Fore
SplineSet
446 138 m 6
 446 731 l 5
 702 731 l 5
 702 122 l 6
 702 -59 611 -120 452 -120 c 4
 293 -120 245 -40 245 -40 c 5
 323 101 l 5
 323 101 346.864257812 73 379 73 c 4
 421 73 446 90 446 138 c 6
376 731 m 5
 376 200 l 5
 288 200 l 6
 95.7275390625 200 35 301.833007812 35 460 c 4
 35 619.970703125 93.6552734375 731 288 731 c 6
 376 731 l 5
EndSplineSet
EndChar

StartChar: ordfeminine
Encoding: 170 170 136
Width: 508
Flags: W
HStem: 212 98<45 463> 353.65 129.549<153.523 283.937> 360.65 14.7G<324.799 448.28> 610.417 128.933<147.864 269.819> 718.351 14G<299.599 448.28>
VStem: 34.9995 153.601<501.431 590.781> 299.599 148.68<508.295 585.267 593.645 732.351> 324.799 44.7303<437.182 480.455>
LayerCount: 2
Fore
SplineSet
45 310 m 5x84
 463 310 l 5
 463 212 l 1
 45 212 l 1
 45 310 l 5x84
EndSplineSet
Refer: 65 97 N 0.7 0 0 0.7 10.4995 360.65 2
EndChar

StartChar: ordmasculine
Encoding: 186 186 137
Width: 468
Flags: W
HStem: 212 98<41.5 426.5> 353.65 129.591<195.362 272.797> 610.459 128.891<194.871 273.289>
VStem: 34.9997 142.26<501.626 590.977> 290.899 142.26<501.626 590.977>
LayerCount: 2
Fore
SplineSet
41.5 310 m 5
 426.5 310 l 5
 426.5 212 l 1
 41.5 212 l 1
 41.5 310 l 5
EndSplineSet
Refer: 68 111 N 0.7 0 0 0.7 10.4997 360.65 2
EndChar

StartChar: asciitilde
Encoding: 126 126 138
Width: 570
Flags: W
HStem: 227 169<319.476 457.837> 291 165<114.699 253.704>
LayerCount: 2
Fore
SplineSet
60 376 m 5x40
 60 376 99.6337890625 456 189 456 c 4x40
 271 456 326 396 410 396 c 4
 475.3984375 396 510 426 510 426 c 5
 510 307 l 5
 510 307 470.296875 227 388 227 c 4x80
 298 227 252 291 170 291 c 4
 114.6015625 291 60 257 60 257 c 5
 60 376 l 5x40
EndSplineSet
EndChar

StartChar: Thorn
Encoding: 222 222 139
Width: 762
Flags: W
HStem: 0 21G<60 316> 130 181<285 453.879> 421 200<290 454.292> 711 20G<60 316>
VStem: 60 256<0 130 311 421 621 731> 290 26<130 311 421 621> 463.8 263.2<325.08 408.564>
LayerCount: 2
Fore
SplineSet
60 0 m 1xfa
 60 731 l 1
 316 731 l 1
 316 0 l 1
 60 0 l 1xfa
290 421 m 1xf6
 290 621 l 1
 404 621 l 2
 628.344726562 621 727 529.970703125 727 370 c 0
 727 211.833007812 626.272460938 130 404 130 c 6
 285 130 l 5
 285 311 l 5
 370 311 l 6
 434 311 463.799804688 320.817382812 463.799804688 368.150390625 c 0
 463.799804688 413.6328125 432.959960938 421 370 421 c 2
 290 421 l 1xf6
EndSplineSet
EndChar
